<?xml version="1.0" encoding="UTF-8" standalone="no"?>
<svg width="48px" height="46px" viewBox="0 0 48 46" version="1.1" xmlns="http://www.w3.org/2000/svg" xmlns:xlink="http://www.w3.org/1999/xlink" xmlns:sketch="http://www.bohemiancoding.com/sketch/ns">
    <!-- Generator: Sketch 3.2.2 (9983) - http://www.bohemiancoding.com/sketch -->
    <title>Untitled 2</title>
    <desc>Created with Sketch.</desc>
    <defs></defs>
    <g id="Page-1" stroke="none" stroke-width="1" fill="none" fill-rule="evenodd" sketch:type="MSPage">
        <g id="line-chart-icon" sketch:type="MSLayerGroup" fill="#75808F">
            <path d="M8.8,30.5 L14.6,33.1 C15.4,33.4 16.2,33.6 17,33.6 C18.8,33.6 20.5,32.8 21.6,31.3 L26.6,24.7 C27.1,24 28.1,23.7 28.9,24.1 L33.2,26 C34.7,26.7 36.4,26.7 37.9,26 L45,22.9 C46,22.5 46.4,21.3 46,20.4 C45.6,19.4 44.4,19 43.5,19.4 L36.4,22.5 C35.9,22.7 35.3,22.7 34.8,22.5 L30.5,20.6 C28,19.5 25.2,20.2 23.6,22.4 L18.6,29 C18.1,29.7 17.1,30 16.3,29.6 L10.4,27 C9.4,26.6 8.3,27 7.9,28 C7.4,28.9 7.9,30.1 8.8,30.5 L8.8,30.5 L8.8,30.5 Z" id="Shape" sketch:type="MSShapeGroup"></path>
            <path d="M46.1,42.2 L3.8,42.2 L3.8,1.9 C3.8,0.8 2.9,0 1.9,0 C0.9,0 0,0.8 0,1.9 L0,44.1 C0,45.2 0.9,46 1.9,46 L46.1,46 C47.2,46 48,45.1 48,44.1 C48,43.1 47.1,42.2 46.1,42.2 L46.1,42.2 L46.1,42.2 Z" id="Shape" sketch:type="MSShapeGroup"></path>
        </g>
    </g>
</svg>