<?xml version="1.0" standalone="no"?>
<!DOCTYPE svg PUBLIC "-//W3C//DTD SVG 1.1//EN" "http://www.w3.org/Graphics/SVG/1.1/DTD/svg11.dtd" >
<svg xmlns="http://www.w3.org/2000/svg">
<metadata></metadata>
<defs>
<font id="icon-worksregular" horiz-adv-x="2009" >
<font-face units-per-em="2048" ascent="1638" descent="-410" />
<missing-glyph horiz-adv-x="1024" />
<glyph horiz-adv-x="1024" />
<glyph horiz-adv-x="1024" />
<glyph unicode="&#xd;" horiz-adv-x="1024" />
<glyph unicode=" "  horiz-adv-x="1024" />
<glyph unicode="&#x09;" horiz-adv-x="1024" />
<glyph unicode="&#xa0;" horiz-adv-x="1024" />
<glyph unicode="!" horiz-adv-x="2023" d="M72 1231q0 106 41 202t111 165t166 110t202 41q124 0 236 -57t184 -156q72 99 184 156t236 57q106 0 202 -41t166 -110t111 -165t41 -202q0 -69 -14 -135t-34 -118.5t-58.5 -111t-69.5 -98t-86.5 -95t-90.5 -87t-100 -88.5q-104 -93 -159.5 -144.5t-138 -144 t-142.5 -184.5q-18 -25 -47 -25q-27 0 -45 25q-47 69 -100 131.5t-120.5 127.5t-103.5 97.5t-115 101.5q-69 60 -104 92t-92.5 88.5t-87.5 95.5t-68.5 98t-57.5 112t-32.5 121t-13.5 141zM182 1231q0 -44 5 -84.5t17 -79.5t23.5 -71t35 -68.5t40.5 -62.5t50 -62t53.5 -58 t61.5 -59.5t63 -57.5t69 -61q97 -85 143 -127t127 -125.5t142 -162.5q59 81 137.5 165t133 134.5t142.5 128.5q170 152 233 222q145 161 174 327q9 49 9 102q0 169 -120 288t-289 119q-119 0 -219.5 -64t-149.5 -171q-17 -31 -51 -31q-35 0 -49 31q-51 107 -152 171t-219 64 q-169 0 -289.5 -119.5t-120.5 -287.5z" />
<glyph unicode="&#x22;" horiz-adv-x="1921" d="M43 1104q13 37 53 37h611l200 577q13 37 54 37q40 0 53 -37l200 -577h611q18 0 32.5 -10t18.5 -27q14 -39 -16 -62l-490 -383l176 -581q4 -16 4 -23q0 -23 -16 -39t-39 -16q-16 0 -33 10l-501 350l-502 -350q-33 -20 -66 0q-30 23 -20 62l178 587l-490 383q-28 22 -18 62 zM256 1030l393 -307q13 -10 18.5 -27t0.5 -32l-142 -471l404 280q30 20 61 0l404 -280l-142 471q-5 15 0.5 32t18.5 27l393 307h-491q-39 0 -52 37l-161 465l-162 -465q-13 -37 -51 -37h-492z" />
<glyph unicode="#" horiz-adv-x="2060" d="M61 299q-4 31 17 49l143 144q16 16 37 16l289 10l358 359l-690 364q-26 13 -29 41q-4 28 15 47l145 144q21 21 53 14l869 -248q44 46 108 110t76 74h2q62 54 140.5 98t148.5 44q67 0 115 -45q35 -36 43 -85t-5 -95t-39 -93.5t-51.5 -80.5t-48.5 -56l-180 -180l248 -869 q7 -31 -15 -53l-143 -143q-18 -21 -47 -17q-28 3 -41 29l-365 690l-358 -358l-10 -289q0 -20 -17 -37l-143 -143q-16 -16 -39 -16h-10q-32 7 -41 34l-147 353l-353 147q-28 9 -35 41zM215 328l297 -123q23 -10 29 -31l125 -297l69 70l10 289q4 23 17 36l426 426q21 21 49 15 q26 -3 39 -29l364 -688l68 67l-246 869q-10 28 15 53l202 203q12 13 29 35t37.5 54t32.5 62t15 58.5t-15 44.5q-8 12 -35 12q-38 0 -96 -30.5t-121 -84.5l-4 -2q-2 -2 -34 -33.5t-79 -78.5l-86 -86q-25 -25 -53 -15l-869 246l-67 -67l688 -365q26 -13 29 -39q6 -28 -15 -49 l-426 -426q-12 -12 -37 -16l-288 -11z" />
<glyph unicode="$" horiz-adv-x="1230" d="M70 1190v22q0 148 73 274t199 199.5t274 73.5t274 -73.5t199.5 -199.5t73.5 -274v-22v-14q-2 -2 -2 -9v-14q-12 -111 -60.5 -261t-120 -306t-135.5 -282t-132 -247q-13 -26 -39.5 -41.5t-57.5 -15.5t-56.5 15.5t-39.5 41.5q-68 121 -132 247t-135.5 282t-120 306 t-60.5 261v10v11v2q-2 4 -2 14zM180 1194q0 -8 2 -10v-10v-11q12 -106 63 -257t124 -307.5t131.5 -271t115.5 -216.5q59 105 116.5 217t131.5 269.5t125 308.5t62 257v13q0 4 2 6v12v18q0 180 -128 308.5t-309 128.5q-180 0 -308 -128.5t-128 -308.5v-18zM416 1188 q0 83 58.5 142t141.5 59t142 -59t59 -142t-59 -142t-142 -59t-141.5 59t-58.5 142zM526 1188q0 -37 26.5 -63.5t63.5 -26.5t64 26.5t27 63.5t-27 63.5t-64 26.5t-63.5 -26.5t-26.5 -63.5z" />
<glyph unicode="&#x26;" horiz-adv-x="2091" d="M117 174v1126q0 39 37 52l518 178h2q2 2 6 2h6q1 0 2 1t2 1q0 -2 2 -2h4h6l5 -2q1 0 3 -1t3 -1h2l557 -279l622 275q28 12 54 -4q24 -15 24 -45v-1149q0 -40 -35 -52l-641 -260q-15 -12 -34 -12q-24 0 -41 21l-529 268l-502 -170q-30 -7 -51 8q-22 16 -22 45zM227 252 l408 137v1012l-408 -141v-1008zM745 389l461 -235v1005l-461 230v-1000zM1317 143l545 219v1027l-545 -240v-1006z" />
<glyph unicode="'" horiz-adv-x="1310" d="M86 299v547q0 146 68.5 272.5t187.5 206t264 92.5q-6 152 -71 211q-7 6 -14.5 10.5t-14 7.5t-14 5.5t-13.5 4t-12.5 2.5t-11 1.5t-9 0.5t-7.5 -0.5t-5 -0.5h-2q-22 -3 -40.5 9.5t-22.5 35.5t9 41.5t36 21.5q6 3 32 4t74 -13t86 -48q105 -88 111 -293q220 -22 369 -186 t149 -385v-547q0 -117 -45.5 -223.5t-122 -183.5t-182.5 -122.5t-223 -45.5h-3q-238 0 -405 167q-168 171 -168 408zM197 299q0 -191 137 -328t328 -137q126 0 232.5 62.5t168 169.5t61.5 233v547q0 181 -124 315t-304 148h-37h-24q-184 -9 -311 -143.5t-127 -319.5v-547z M512 788v232q0 56 39 94.5t94 38.5h33q54 0 92.5 -39t38.5 -94v-232q0 -54 -38.5 -92.5t-92.5 -38.5h-33q-55 0 -94 39t-39 92zM623 788q0 -8 6 -14q12 -6 16 -6h33q8 0 14 6t6 14v232q0 9 -6 14.5t-14 5.5h-33q-9 0 -15.5 -5.5t-6.5 -14.5v-232z" />
<glyph unicode="(" horiz-adv-x="2131" d="M135 -221v1823q0 23 16 39t39 16t39.5 -16t16.5 -39v-1768h1767q23 0 39 -16t16 -39t-16 -39t-39 -16h-1823q-23 0 -39 16t-16 39zM340 33v416q0 50 35 85t86 35h239q50 0 85.5 -35.5t35.5 -84.5v-416q0 -51 -35.5 -86t-85.5 -35h-239q-51 0 -86 35t-35 86zM451 33 q0 -10 10 -10h239q11 0 11 10v416q0 3 -4 6.5t-7 3.5h-239q-10 0 -10 -10v-416zM922 33v932q0 49 35 84.5t85 35.5h240q51 0 86 -35t35 -85v-932q0 -51 -35 -86t-86 -35h-240q-50 0 -85 35t-35 86zM1032 33q0 -10 10 -10h240q10 0 10 10v932q0 10 -10 10h-240q-10 0 -10 -10 v-932zM1503 33v1206q0 49 35.5 85t85.5 36h240q51 0 86 -35.5t35 -85.5v-1206q0 -51 -35 -86t-86 -35h-240q-50 0 -85.5 35t-35.5 86zM1614 33q0 -10 10 -10h240q10 0 10 10v1206q0 10 -10 10h-240q-3 0 -6.5 -3.5t-3.5 -6.5v-1206z" />
<glyph unicode=")" horiz-adv-x="2119" d="M86 639q0 186 72.5 355t195 291t292 194.5t355.5 72.5v-913h914q0 -186 -72.5 -355.5t-195 -292t-291.5 -195t-355 -72.5t-355.5 72.5t-292 195t-195 292t-72.5 355.5zM197 639q0 -164 63.5 -313t171.5 -256.5t256.5 -171.5t312.5 -64q199 0 372.5 91.5t285 249.5 t137.5 351h-795h-112v113v795q-193 -26 -351 -137.5t-249.5 -285t-91.5 -372.5zM1124 756v913q186 0 356 -72.5t292.5 -194.5t195 -291t72.5 -355h-916z" />
<glyph unicode="*" horiz-adv-x="1867" d="M88 1423q2 20 15.5 35.5t33.5 18.5q188 26 371 92.5t399 187.5q27 17 54 0q218 -121 400.5 -187.5t371.5 -92.5q20 -3 33.5 -18.5t13.5 -35.5q18 -770 -336 -1259q-192 -266 -481 -432q-13 -8 -29 -8t-27 8q-291 165 -483 432q-354 489 -336 1259zM199 1374 q-6 -699 315 -1147q167 -231 420 -385q253 154 420 385q321 443 315 1147q-177 29 -352.5 94t-382.5 177q-207 -112 -382.5 -177t-352.5 -94z" />
<glyph unicode="+" horiz-adv-x="2064" d="M113 92v1020q0 37 27 63.5t65 26.5h383l14 92l10 62q4 36 36 63t69 27h626q38 0 69.5 -26.5t37.5 -63.5l10 -62l13 -92h385q38 0 65 -26.5t27 -63.5v-1020q0 -38 -27 -65t-65 -27h-1653q-38 0 -65 27t-27 65zM223 111h1616v981h-366q-40 0 -71.5 27t-37.5 67l-14 92 l-9 57h-620l-10 -57l-13 -92q-6 -40 -37.5 -67t-72.5 -27h-365v-981zM616 649q0 170 122 292t292 122q171 0 292.5 -121.5t121.5 -292.5q0 -112 -55.5 -207t-150.5 -150.5t-208 -55.5q-170 0 -292 121.5t-122 291.5zM729 649q0 -126 88 -214.5t213 -88.5q126 0 214.5 88.5 t88.5 214.5q0 125 -88.5 214t-214.5 89q-124 0 -212.5 -89t-88.5 -214zM1573 920q0 37 25.5 63.5t62.5 26.5t62.5 -26.5t25.5 -63.5q0 -36 -26 -62.5t-62 -26.5t-62 26.5t-26 62.5z" />
<glyph unicode="," horiz-adv-x="2095" d="M113 336v6v4v240v6v4q0 23 16 39t39 16h94v164q0 49 36 85t85 36h1454q51 0 86 -35.5t35 -85.5v-694q0 -50 -35 -85.5t-86 -35.5h-1454q-49 0 -85 36t-36 85v160h-94q-23 0 -39 16t-16 39zM373 121q0 -3 3.5 -6.5t6.5 -3.5h1454q10 0 10 10v694q0 10 -10 10h-1454 q-3 0 -6.5 -3.5t-3.5 -6.5v-694zM1368 195v546h385v-546h-385z" />
<glyph unicode="-" horiz-adv-x="1495" d="M86 55v799q0 23 16 39t39 16h903v260q0 135 -83 221.5t-213 86.5q-132 0 -215.5 -86.5t-83.5 -221.5v-63q0 -23 -16.5 -39t-39.5 -16q-22 0 -38.5 16t-16.5 39v63q0 182 116 300t294 118q177 0 292 -118t115 -300v-260h199q22 0 38.5 -16t16.5 -39v-799q0 -23 -16.5 -39 t-38.5 -16h-1213q-23 0 -39 16t-16 39zM197 111h1101v688h-1101v-688zM610 565q0 50 42 86.5t96 36.5q52 0 93.5 -36.5t41.5 -86.5q0 -36 -22.5 -66t-57.5 -46v-230q0 -23 -16 -40t-39 -17t-39.5 17t-16.5 40v230q-35 16 -58.5 46.5t-23.5 65.5z" />
<glyph unicode="." horiz-adv-x="2066" d="M100 336v6v4v240v6v4q0 23 16.5 39t39.5 16h94v164q0 49 36 85t85 36h1454q51 0 86 -35.5t35 -85.5v-694q0 -50 -35 -85.5t-86 -35.5h-1454q-49 0 -85 36t-36 85v160h-94q-23 0 -39.5 16t-16.5 39zM360 121q0 -3 4 -6.5t7 -3.5h1454q10 0 10 10v694q0 10 -10 10h-1454 q-3 0 -7 -3.5t-4 -6.5v-694zM453 195v546h372v-546h-372zM911 195v546h377v-546h-377zM1368 195v546h373v-546h-373z" />
<glyph unicode="/" horiz-adv-x="2154" d="M53 1423q0 27 21 45l362 285q15 12 35 12h1274q23 0 39 -16t16 -39v-571q0 -23 -16 -39.5t-39 -16.5h-612v-102h553q20 0 32 -12l363 -285q22 -16 22 -43q0 -29 -22 -45l-363 -285q-12 -12 -32 -12h-553v-520q0 -23 -16.5 -39t-39.5 -16t-39 16t-16 39v520h-610 q-23 0 -39.5 16t-16.5 39v572q0 22 17 39q16 16 39 16h610v102h-551q-19 0 -35 13l-362 284q-21 18 -21 43zM199 1423l290 -229h533h111h557v461h-1201zM467 410h555h111h532l293 231l-293 229h-532h-111h-555v-460z" />
<glyph unicode="0" horiz-adv-x="2222" d="M102 109v12v971v12q5 46 39.5 78t81.5 32h1102v-112h-1102q-10 0 -10 -10v-971q0 -10 10 -10h1333q4 0 7.5 3.5t3.5 6.5v330h110v-330q0 -50 -35 -85.5t-86 -35.5h-1333q-47 0 -81.5 31.5t-39.5 77.5zM932 666q124 198 340 328q176 106 385 143v194q0 37 35 51 q36 14 59 -12l381 -381q16 -16 16 -39t-16 -39l-381 -379q-16 -16 -39 -16q-8 0 -20 4q-35 14 -35 51v189h-37q-92 0 -187.5 -17t-160 -37t-131.5 -49t-87.5 -40t-41.5 -24q-1 0 -2 -1q-15 -10 -34.5 -8t-33.5 14q-30 30 -10 68zM1190 797q215 73 430 73q65 0 98 -4 q21 -1 35 -17t14 -38v-106l248 245l-248 248v-108q0 -22 -13.5 -37.5t-33.5 -18.5q-302 -43 -530 -237z" />
<glyph unicode="1" horiz-adv-x="2156" d="M186 839q51 227 207 404l-155 154l389 -4v-383l-156 155q-135 -155 -178.5 -354.5t13 -396.5t204.5 -344q115 -116 262.5 -176t306.5 -60v-110q-180 0 -348 68.5t-299 199.5q-169 169 -233 394.5t-13 452.5zM1079 1444v112q178 0 346 -68.5t299 -199.5 q169 -169 233 -394.5t13 -452.5t-207 -404l156 -156l-389 6v381l156 -153q135 155 178 354t-13.5 396t-203.5 345q-115 115 -263 174.5t-305 59.5z" />
<glyph unicode="2" d="M90 641q0 186 72.5 355t195 291t292.5 194.5t356 72.5t355 -72.5t291 -194.5t194.5 -291t72.5 -355t-72.5 -355.5t-194.5 -292t-291 -195t-355 -72.5t-356 72.5t-292.5 195t-195 292t-72.5 355.5zM201 641q0 -218 108 -403.5t293.5 -293.5t403.5 -108q148 0 283 52.5 t243 146.5l-1133 1132q-94 -108 -146 -243t-52 -283zM477 1245l1133 -1132q94 108 146 243.5t52 284.5q0 217 -107.5 402t-292.5 293t-402 108q-149 0 -285 -52.5t-244 -146.5z" />
<glyph unicode="3" d="M90 639q0 186 72.5 355t195 291t291.5 194.5t355 72.5t355.5 -72.5t292 -194.5t195 -291t72.5 -355t-72.5 -355.5t-194.5 -292t-291 -195t-355 -72.5h-2q-186 0 -355 72.5t-291.5 195t-195 292t-72.5 355.5zM203 584q13 -197 115 -363.5t268 -269t362 -115.5v262 q0 23 17 39.5t39 16.5q23 0 40 -16.5t17 -39.5v-262q196 13 362 115.5t268 269t115 363.5h-262q-23 0 -39 16t-16 39q0 22 16 38.5t39 16.5h262q-13 196 -115 362t-268 268.5t-362 115.5v-262q0 -23 -17 -39.5t-40 -16.5q-22 0 -39 16.5t-17 39.5v262q-196 -13 -362 -115.5 t-268 -268.5t-115 -362h262q23 0 39 -16.5t16 -38.5q0 -23 -16 -39t-39 -16h-262z" />
<glyph unicode="4" horiz-adv-x="1900" d="M23 657l270 271v-219h602v602h-219l278 270l271 -270h-219v-602h602v219l270 -271l-270 -278v219h-602v-602h219l-271 -270l-278 270h219v602h-602v-219z" />
<glyph unicode="5" horiz-adv-x="1755" d="M12 0v389l154 -156l635 633l78 78l632 633l-155 156h389v-387l-156 153l-633 -633l-77 -78l-633 -632l153 -156h-387z" />
<glyph unicode="6" horiz-adv-x="2142" d="M54 847.5q-5 22.5 7 41.5q170 255 438 399t572 144q306 0 573.5 -144t436.5 -399q12 -19 8 -41.5t-23 -34.5q-20 -13 -42.5 -9t-34.5 23q-154 232 -397.5 363t-520.5 131q-276 0 -519 -131t-398 -363q-15 -24 -45 -24q-19 0 -31 10q-19 12 -24 34.5zM314 674.5 q-4 22.5 8 42.5q126 189 324.5 295t424.5 106q227 0 425.5 -106t324.5 -295q13 -20 8.5 -42t-23.5 -36q-20 -12 -42 -8t-35 24q-110 166 -285 259.5t-373 93.5t-372.5 -93.5t-284.5 -259.5q-15 -24 -45 -24q-20 0 -31 8q-20 13 -24 35.5zM588 492.5q-4 22.5 8 42.5 q79 120 205.5 188t269.5 68q144 0 269.5 -68t205.5 -188q13 -20 9 -42t-23 -36q-20 -12 -42 -7.5t-36 23.5q-65 97 -165.5 151t-217.5 54q-116 0 -217.5 -54t-165.5 -151q-15 -24 -45 -24q-20 0 -31 8q-20 13 -24 35.5zM854 219q0 65 35 121q31 46 79 72t103 26t103 -26 t79 -72q37 -55 37 -121q0 -69 -37 -121q-31 -46 -79 -72t-103 -26t-103 26t-79 72q-35 53 -35 121zM965 219q0 -30 16 -59q32 -49 90 -49t90 49q19 29 19 59q0 31 -19 60q-30 47 -90 47t-90 -47q-16 -29 -16 -60z" />
<glyph unicode="7" horiz-adv-x="1665" d="M59 1407q-3 24 9.5 43t35.5 23q299 60 590 -27.5t506 -302.5q216 -217 304 -508t28 -590q-4 -23 -23.5 -35.5t-42.5 -7.5q-12 2 -28 14q-21 21 -15 52q54 271 -26 535.5t-275 459.5q-195 197 -459 276.5t-538 24.5q-22 -5 -42 8t-24 35zM123 1102q-5 23 7.5 42t35.5 23 q223 44 438.5 -20.5t376.5 -224.5q160 -160 225 -376.5t19 -439.5q-3 -23 -22.5 -35.5t-41.5 -7.5q-10 2 -28 15q-20 20 -17 51q40 195 -17 384.5t-198 330.5q-139 139 -328.5 196t-386.5 19q-22 -5 -40.5 7.5t-22.5 35.5zM129 328q15 65 59 112q52 49 113 60 q54 10 106.5 -6t90.5 -54q84 -84 59 -198q-12 -64 -59 -111t-111 -59q-55 -11 -107 4.5t-90 54.5q-40 38 -56 90.5t-5 106.5zM188 778q-5 23 7.5 42.5t35.5 23.5q140 29 277.5 -12.5t239.5 -143.5q101 -101 142 -238t13 -278q-4 -23 -23 -35.5t-42 -7.5q-14 3 -29 14 q-20 20 -14 52q23 114 -10 223.5t-115 191.5q-84 82 -193.5 115t-224.5 10q-22 -5 -41.5 8t-22.5 35zM238 307q-10 -61 30 -98q42 -42 97 -29q33 6 55 29q22 22 29 55q13 57 -29 96q-38 41 -98 31q-33 -7 -54 -31q-24 -21 -30 -53z" />
<glyph unicode="8" horiz-adv-x="1665" d="M133 43q-60 299 27.5 590t302.5 508q215 215 506 302t592 27q22 -5 34.5 -23.5t8.5 -41.5q-5 -22 -24 -34.5t-42 -8.5q-271 55 -535.5 -24.5t-461.5 -276.5q-195 -195 -274.5 -459.5t-24.5 -535.5q3 -32 -17 -52q-11 -11 -28 -14q-22 -5 -41 7.5t-23 35.5zM438 104 q-44 223 21 439.5t225 376.5t375 224.5t438 20.5q23 -5 36 -23.5t9 -41.5t-23.5 -35.5t-41.5 -7.5q-195 38 -385.5 -19t-329.5 -196q-140 -141 -197.5 -331t-17.5 -384q7 -31 -17 -51q-12 -12 -26 -15q-23 -5 -42.5 7.5t-23.5 35.5zM760 170q-28 141 13 278t142 238 q102 102 240 143.5t279 12.5q22 -5 34.5 -24t8.5 -42q-5 -22 -24 -34.5t-42 -8.5q-114 23 -224 -10t-192 -115q-83 -81 -116 -190.5t-11 -224.5q6 -32 -14 -52q-16 -12 -29 -14q-22 -5 -41.5 7.5t-23.5 35.5zM1106 240q-22 114 59 198q38 38 91 54t108 6q59 -12 111 -60 q47 -47 59 -112q11 -54 -5 -106.5t-54 -90.5q-38 -39 -91 -54.5t-108 -4.5q-65 13 -111 59q-47 47 -59 111zM1214 262q6 -33 29 -55q27 -23 55 -29q54 -12 99 29q38 38 28 98q-6 31 -28 53q-25 25 -56 31q-57 10 -98 -31t-29 -96z" />
<glyph unicode="9" horiz-adv-x="1650" d="M50 348q0 96 67 164l309 309q66 66 159.5 68t162.5 -62l-76 -79q-35 32 -84 31t-84 -36l-309 -309q-35 -35 -35 -86t35 -86l116 -115q35 -35 86 -35t86 35l310 310q34 34 35 82.5t-33 83.5l82 75q63 -69 61 -162t-68 -159l-309 -309q-67 -68 -164 -68t-164 68l-116 116 q-67 68 -67 164zM579 587q0 23 17 38l401 401q15 17 38 17t40 -17q15 -15 15 -39t-15 -39l-401 -401q-15 -15 -39 -15t-39 15q-17 17 -17 40zM733 1036.5q2 93.5 68 159.5l309 309q68 67 164 67t164 -67l116 -116q68 -68 68 -164t-68 -164l-309 -309q-66 -66 -159 -68 t-162 61l75 82q35 -34 83.5 -33t82.5 35l310 310q36 33 36 86t-36 86l-115 116q-35 35 -86 35t-86 -35l-309 -309q-35 -35 -36 -84t31 -84l-79 -76q-64 69 -62 162.5z" />
<glyph unicode=":" horiz-adv-x="2111" d="M133 121v1280q0 50 35 85.5t86 35.5h1604q51 0 85.5 -35.5t34.5 -85.5v-1280q0 -50 -34.5 -85.5t-85.5 -35.5h-1604q-51 0 -86 35.5t-35 85.5zM244 121q0 -10 10 -10h1604q10 0 10 10v1280q0 10 -10 10h-1604q-10 0 -10 -10v-1280zM350 219l49 111l367 751l405 -544 l203 176l379 -494h-1403zM1360 967q0 38 28 66t66 28q40 0 68 -28t28 -66q0 -40 -28 -68.5t-68 -28.5q-38 0 -66 28.5t-28 68.5z" />
<glyph unicode=";" horiz-adv-x="2095" d="M113 336v6v4v240v6v4q0 23 16 39t39 16h94v164q0 49 36 85t85 36h1454q51 0 86 -35.5t35 -85.5v-694q0 -50 -35 -85.5t-86 -35.5h-1454q-49 0 -85 36t-36 85v160h-94q-23 0 -39 16t-16 39zM373 121q0 -3 3.5 -6.5t6.5 -3.5h1454q10 0 10 10v694q0 10 -10 10h-1454 q-3 0 -6.5 -3.5t-3.5 -6.5v-694zM913 195v546h373v-546h-373zM1368 195v546h385v-546h-385z" />
<glyph unicode="&#x3c;" d="M90 639q0 186 72.5 355t195 291t291.5 194.5t355 72.5t355.5 -72.5t292 -194.5t195 -291t72.5 -355t-72.5 -355.5t-195 -292t-292 -195t-355.5 -72.5t-355 72.5t-291.5 195t-195 292t-72.5 355.5zM201 639q0 -128 39 -250h264q-19 127 -19 250q0 125 19 252h-262 q-41 -121 -41 -252zM287 279q64 -130 171 -229.5t242 -155.5q-118 149 -174 385h-239zM287 1001h239q56 231 174 381q-133 -55 -240 -154t-173 -227zM596 639q0 -117 20 -250h332v502h-330q-22 -126 -22 -252zM641 279q44 -173 126.5 -290t180.5 -145v435h-307zM641 1001 h307v431q-97 -27 -179 -143.5t-128 -287.5zM1061 -156q99 27 180.5 144.5t126.5 290.5h-307v-435zM1061 389h332q20 133 20 250q0 126 -22 252h-330v-502zM1061 1001h307q-46 171 -128 287.5t-179 143.5v-431zM1309 -106q135 56 242 155.5t171 229.5h-239 q-56 -236 -174 -385zM1309 1382q118 -150 174 -381h239q-66 128 -173 227t-240 154zM1505 389h264q39 122 39 250q0 131 -41 252h-262q19 -127 19 -252q0 -123 -19 -250z" />
<glyph unicode="=" horiz-adv-x="2119" d="M86 639q0 186 72.5 355t195 291t292 194.5t355.5 72.5v-913h914q0 -186 -72.5 -355.5t-195 -292t-291.5 -195t-355 -72.5t-355.5 72.5t-292 195t-195 292t-72.5 355.5zM1124 756v913q186 0 356 -72.5t292.5 -194.5t195 -291t72.5 -355h-916zM1235 866h686 q-37 266 -228.5 457.5t-457.5 226.5v-684z" />
<glyph unicode="&#x3e;" horiz-adv-x="2095" d="M113 336v6v4v240v6v4q0 23 16 39t39 16h94v164q0 49 36 85t85 36h1454q51 0 86 -35.5t35 -85.5v-694q0 -50 -35 -85.5t-86 -35.5h-1454q-49 0 -85 36t-36 85v160h-94q-23 0 -39 16t-16 39zM373 121q0 -3 3.5 -6.5t6.5 -3.5h1454q10 0 10 10v694q0 10 -10 10h-1454 q-3 0 -6.5 -3.5t-3.5 -6.5v-694z" />
<glyph unicode="?" horiz-adv-x="2119" d="M86 639q0 186 72.5 355t194.5 291t291 194.5t355 72.5v-913h916q0 -186 -72.5 -355.5t-195 -292t-292.5 -195t-356 -72.5t-355 72.5t-291 195t-194.5 292t-72.5 355.5zM197 639q0 -164 63.5 -313t171 -256.5t256 -171.5t311.5 -64q150 0 288.5 53.5t243.5 146t175 220.5 t90 272h-797h-110v113v795q-193 -26 -351.5 -137.5t-249.5 -284.5t-91 -373zM1124 756v913q186 0 356 -72.5t292.5 -194.5t195 -291t72.5 -355h-916zM1235 866h686q-37 266 -228.5 457.5t-457.5 226.5v-684z" />
<glyph unicode="@" horiz-adv-x="2031" d="M109 -156v693q0 51 34.5 85.5t85.5 34.5h125v992q0 50 35 85t86 35h408h108l2 -2l715 -714h2v-111v-285h123q51 0 86 -34.5t35 -85.5v-693q0 -51 -35 -85.5t-86 -34.5h-1604q-51 0 -85.5 34.5t-34.5 85.5zM219 -156q0 -10 10 -10h125h1354h125q10 0 10 10v693 q0 10 -10 10h-123h-111h-1134h-111h-125q-10 0 -10 -10v-693zM465 657h1134v285h-593q-51 0 -87 35.5t-36 85.5v596h-408q-10 0 -10 -10v-992zM911 346q0 23 16.5 39t39.5 16h632h54q23 0 39 -16t16 -39t-16 -39t-39 -16h-54h-632q-23 0 -39.5 16t-16.5 39zM993 1063 q0 -3 4.5 -6.5t8.5 -3.5h544l-557 557v-547zM1198 100q0 22 16 38t39 16h346h54q23 0 39 -16t16 -38q0 -23 -16 -40t-39 -17h-54h-346q-23 0 -39 17t-16 40z" />
<glyph unicode="A" horiz-adv-x="1591" d="M137 -156v1803q0 50 35 85t86 35h410h108l2 -2l713 -714h2v-111v-1096q0 -51 -35.5 -85.5t-85.5 -34.5h-1114q-51 0 -86 34.5t-35 85.5zM248 -156q0 -10 10 -10h1114q10 0 10 10v1096h-594q-51 0 -85.5 35.5t-34.5 85.5v596h-410q-10 0 -10 -10v-1803zM778 1061 q0 -10 10 -10h547l-557 557v-547z" />
<glyph unicode="B" horiz-adv-x="1591" d="M137 -156v1803q0 50 35 85t86 35h410h108l2 -2l713 -714h2v-111v-1096q0 -51 -35 -85.5t-86 -34.5h-1114q-51 0 -86 34.5t-35 85.5zM248 -156q0 -10 10 -10h1114q10 0 10 10v1096h-594q-51 0 -85.5 36t-34.5 87v594h-410q-10 0 -10 -10v-1803zM330 117v110h110v-110h-110 zM330 381v111h110v-111h-110zM330 645v113h110v-113h-110zM526 172q0 23 16.5 39t39.5 16h663q23 0 39 -16t16 -39t-16 -39t-39 -16h-663q-23 0 -39.5 16t-16.5 39zM526 436q0 23 16.5 39.5t39.5 16.5h663q23 0 39 -16.5t16 -39.5t-16 -39t-39 -16h-663q-23 0 -39.5 16 t-16.5 39zM526 702q0 22 16.5 39t39.5 17h663q23 0 39 -17t16 -39q0 -23 -16 -40t-39 -17h-663q-23 0 -39.5 17t-16.5 40zM778 1063q0 -12 10 -12h547l-557 557v-545z" />
<glyph unicode="C" horiz-adv-x="2058" d="M135 -156v1803q0 50 35 85t86 35h410h108l2 -2l713 -714h2v-111v-336h-111v336h-594q-51 0 -85.5 36t-34.5 87v594h-410q-10 0 -10 -10v-1803q0 -10 10 -10h653v-110h-653q-51 0 -86 34.5t-35 85.5zM328 8q0 23 16 39t39 16h399q23 0 39.5 -16t16.5 -39t-16.5 -39 t-39.5 -16h-399q-23 0 -39 16t-16 39zM328 256q0 23 16 39t39 16h399q23 0 39.5 -16t16.5 -39t-16.5 -39t-39.5 -16h-399q-23 0 -39 16t-16 39zM328 502q0 23 16 39t39 16h860q23 0 39 -16t16 -39t-16 -39.5t-39 -16.5h-860q-23 0 -39 16.5t-16 39.5zM328 750q0 23 16 39 t39 16h860q23 0 39 -16t16 -39t-16 -39.5t-39 -16.5h-860q-23 0 -39 16.5t-16 39.5zM776 1063q0 -12 10 -12h547l-557 557v-545zM1001 -207l82 291q2 8 15 25l491 491l123 121q27 27 62 27q40 0 71 -31l154 -154q26 -26 26 -67q-4 -36 -28 -60l-121 -121l-494 -493 q-9 -9 -24 -12l-289 -84q-6 -2 -16 -2q-23 0 -39 16t-16 35q0 9 3 18zM1133 -141l182 51l444 444l-131 129l-442 -442zM1706 561l131 -129l68 70l-129 129z" />
<glyph unicode="D" horiz-adv-x="1744" d="M135 -156v1803q0 50 35 85t86 35h410h108l2 -2l713 -714h2v-111v-606h-111v606h-594q-51 0 -85.5 36t-34.5 87v594h-410q-10 0 -10 -10v-1803q0 -10 10 -10h928v-110h-928q-51 0 -86 34.5t-35 85.5zM776 1063q0 -12 10 -12h547l-557 557v-545zM1184 37h192v190h121v-190 h191v-123h-191v-190h-121v190h-192v123z" />
<glyph unicode="E" horiz-adv-x="2078" d="M131 121v1063v110v107q0 50 35 85.5t86 35.5h620q50 0 85.5 -36t35.5 -85v-107h389h473h11v-2q44 -3 75.5 -34t34.5 -74v-10v-254v-316v-49v-434q0 -50 -35 -85.5t-86 -35.5h-1603q-51 0 -86 35.5t-35 85.5zM242 121q0 -10 10 -10h1603q4 0 7.5 3.5t3.5 6.5v434v49v316 v254v10h-1624v-1063zM242 1294h641v107q0 3 -4 6.5t-7 3.5h-620q-10 0 -10 -10v-107z" />
<glyph unicode="F" horiz-adv-x="1888" d="M121 121v1206q0 50 35 85.5t86 35.5h356v68q0 23 16 39t39 16t39.5 -16t16.5 -39v-68h469v68q0 23 16 39t39 16t39 -16t16 -39v-68h357q51 0 85.5 -35.5t34.5 -85.5v-1206q0 -50 -34.5 -85.5t-85.5 -35.5h-1403q-51 0 -86 35.5t-35 85.5zM231 121q0 -3 3.5 -6.5t7.5 -3.5 h1403q10 0 10 10v813h-1424v-813zM231 1044h1424v283q0 10 -10 10h-357v-24q0 -23 -16 -39.5t-39 -16.5t-39 16.5t-16 39.5v24h-469v-24q0 -23 -16.5 -39.5t-39.5 -16.5t-39 16.5t-16 39.5v24h-356q-11 0 -11 -10v-283zM387 219v242h242v-242h-242zM387 545v239h242v-239 h-242zM713 545v239h241v-239h-241z" />
<glyph unicode="G" horiz-adv-x="2111" d="M133 121v1280q0 50 35 85.5t86 35.5h1604q51 0 85.5 -35.5t34.5 -85.5v-1280q0 -50 -34.5 -85.5t-85.5 -35.5h-1604q-51 0 -86 35.5t-35 85.5zM244 121q0 -10 10 -10h1604q10 0 10 10v887h-1624v-887zM244 1118h1624v283q0 10 -10 10h-1604q-10 0 -10 -10v-283zM340 1262 q0 23 16 39t39 16t39.5 -16t16.5 -39t-16.5 -39.5t-39.5 -16.5t-39 16.5t-16 39.5zM477 1262q0 23 16 39t39 16t39.5 -16t16.5 -39t-16.5 -39.5t-39.5 -16.5t-39 16.5t-16 39.5zM614 1262q0 23 16.5 39t39.5 16t39 -16t16 -39t-16 -39.5t-39 -16.5t-39.5 16.5t-16.5 39.5z " />
<glyph unicode="H" horiz-adv-x="2111" d="M133 121v1280q0 50 35 85.5t86 35.5h1604q51 0 85.5 -35.5t34.5 -85.5v-1280q0 -50 -34.5 -85.5t-85.5 -35.5h-1604q-51 0 -86 35.5t-35 85.5zM244 121q0 -10 10 -10h1604q10 0 10 10v887h-1624v-887zM244 1118h1624v283q0 10 -10 10h-1604q-10 0 -10 -10v-283zM340 1262 q0 23 16 39t39 16t39.5 -16t16.5 -39t-16.5 -39.5t-39.5 -16.5t-39 16.5t-16 39.5zM477 1262q0 23 16 39t39 16t39.5 -16t16.5 -39t-16.5 -39.5t-39.5 -16.5t-39 16.5t-16 39.5zM571 547q0 31 25 47l295 186q19 14 41.5 9t34.5 -25q12 -19 7 -41.5t-24 -34.5l-221 -141 l221 -141q19 -12 24 -35t-7 -43q-16 -25 -47 -25q-18 0 -31 8l-293 191q-25 16 -25 45zM614 1262q0 23 16.5 39t39.5 16t39 -16t16 -39t-16 -39.5t-39 -16.5t-39.5 16.5t-16.5 39.5zM1139 371q4 23 24 35l221 141l-221 141q-20 12 -24 35q-1 6 -1 11q0 16 9 30q12 20 34 24 q6 1 11 2q16 0 31 -10l293 -186q26 -16 26 -47q0 -28 -24 -45l-295 -191q-13 -8 -31 -8q-29 0 -45 25q-9 15 -9 32q0 5 1 11z" />
<glyph unicode="I" horiz-adv-x="2084" d="M119 121v1206q0 50 35 85.5t86 35.5h456v151q0 23 16.5 39.5t39.5 16.5h6h6h555h6h6q23 0 39 -16.5t16 -39.5v-151h457q51 0 86 -35.5t35 -85.5v-1206q0 -50 -35 -85.5t-86 -35.5h-1603q-51 0 -86 35.5t-35 85.5zM229 121q0 -3 3.5 -6.5t7.5 -3.5h272v1226h-272 q-11 0 -11 -10v-1206zM625 111h835v1226h-835v-1226zM807 1448h469v96h-469v-96zM1571 111h272q10 0 10 10v1206q0 10 -10 10h-272v-1226z" />
<glyph unicode="J" horiz-adv-x="1953" d="M68 29q-7 13 -7 26q0 16 11 31q107 159 161.5 338t98.5 516q13 98 49 179t80.5 134.5t102 95.5t107 64.5t103.5 38.5q15 71 72 117.5t131 46.5q75 0 132.5 -46.5t72.5 -117.5q54 -16 103.5 -38.5t107 -64.5t102 -95.5t80.5 -134.5t49 -179q44 -337 98.5 -516t161.5 -338 q10 -14 10 -30q0 -13 -6 -27q-16 -29 -49 -29h-1722q-33 0 -49 29zM217 111h1522q-90 156 -138 338t-88 477q-11 83 -41 151t-68.5 113t-89 79.5t-97.5 53.5t-99 31q-19 5 -31 19.5t-12 33.5v2q0 40 -28.5 68t-69.5 28q-40 0 -68 -28t-30 -68v-2q0 -19 -11 -34t-30 -19 q-52 -12 -99 -31t-98 -53.5t-89.5 -79.5t-68.5 -113t-41 -151q-40 -296 -87.5 -478t-137.5 -337zM823 -55h307q0 -63 -44.5 -108.5t-108.5 -45.5q-63 0 -108.5 45.5t-45.5 108.5z" />
<glyph unicode="K" horiz-adv-x="1789" d="M114 828q-21 80 -21.5 160t21.5 161q42 161 162 281q91 89 205 135.5t236 46.5t236.5 -46.5t205.5 -135.5q101 -102 147 -234q35 -102 35 -206q0 -32 -3 -64q-14 -137 -85 -256q-4 -20 -10 -29l445 -444q26 -27 28 -53v-8q0 -22 -8 -36q-10 -18 -31 -39l-20 -20 q-21 -21 -39 -31q-14 -8 -32 -9q-4 0 -10 1q-26 3 -52 29l-447 446q-3 -2 -8 -5t-8 -5q-156 -102 -344 -102q-122 0 -236 46.5t-205 135.5q-120 121 -162 281zM205 987q0 -103 38.5 -196.5t110.5 -165.5q74 -72 168 -111t195 -39q103 0 196.5 39t165.5 111q99 99 134 231 q18 66 17.5 132t-17.5 132q-35 132 -134 230q-148 151 -362 151q-102 0 -196 -39t-167 -112q-72 -72 -110.5 -166t-38.5 -197z" />
<glyph unicode="L" horiz-adv-x="1789" d="M114 828q-21 80 -21.5 160t21.5 161q42 161 162 281q91 89 205 135.5t236 46.5t236.5 -46.5t205.5 -135.5q101 -102 147 -234q35 -102 35 -206q0 -32 -3 -64q-14 -137 -85 -256q-4 -20 -10 -29l445 -444q28 -28 28 -58q0 -37 -41 -78q-2 -4 -18 -20q-23 -21 -39 -31 q-13 -8 -33 -8h-9q-26 2 -52 29l-447 446q-3 -2 -8 -5t-8 -5q-156 -102 -344 -102q-122 0 -236 46.5t-205 135.5q-120 121 -162 281zM205 987q0 -103 38.5 -196.5t110.5 -165.5q153 -150 363 -150q103 0 196.5 39t165.5 111q99 99 134 231q18 66 17.5 132t-17.5 132 q-35 132 -134 230q-148 151 -362 151q-212 0 -363 -151q-72 -72 -110.5 -166t-38.5 -197zM455 928v121h526v-121h-526z" />
<glyph unicode="M" horiz-adv-x="1861" d="M98 330v1206q0 50 35 85.5t86 35.5h1403q51 0 86 -35.5t35 -85.5v-408v-798q0 -50 -35 -85.5t-86 -35.5h-231v-209l-375 209h-797q-51 0 -86 35.5t-35 85.5zM209 330q0 -11 10 -11h172h653l25 -12l174 -98l37 -21v21v110h111h231q10 0 10 11v798v121v287q0 10 -10 10 h-1403q-10 0 -10 -10v-1206zM434 1249q0 23 16 39.5t39 16.5h863q23 0 39 -16.5t16 -39.5t-16 -39t-39 -16h-863q-23 0 -39 16t-16 39zM610 1001q0 23 16.5 39.5t39.5 16.5h686q23 0 39 -16.5t16 -39.5t-16 -39t-39 -16h-686q-23 0 -39.5 16t-16.5 39zM897 756q0 23 16 39 t39 16h400q23 0 39 -16t16 -39t-16 -39.5t-39 -16.5h-400q-23 0 -39 16.5t-16 39.5z" />
<glyph unicode="N" horiz-adv-x="1875" d="M86 332v798q0 51 35 87t86 36h1110q51 0 86 -36t35 -87v-798q0 -50 -35 -85.5t-86 -35.5h-232v-209l-376 209h-502q-51 0 -86 35.5t-35 85.5zM197 332q0 -10 10 -10h502h30l25 -13l211 -119v21v111h110h232q10 0 10 10v798q0 13 -10 13h-1110q-10 0 -10 -13v-798z M365 854q0 23 16 39t39 16h684q23 0 39 -16t16 -39t-16 -39t-39 -16h-684q-23 0 -39 16t-16 39zM436 1370v234q0 51 36 85.5t87 34.5h1110q50 0 85.5 -34.5t35.5 -85.5v-799q0 -51 -35.5 -86t-85.5 -35h-151v111h151q10 0 10 10v799q0 10 -10 10h-1110q-10 0 -10 -10v-234 h-113zM649 608q0 23 16.5 39.5t39.5 16.5h399q23 0 39 -16.5t16 -39.5t-16 -39t-39 -16h-399q-23 0 -39.5 16t-16.5 39z" />
<glyph unicode="O" horiz-adv-x="1677" d="M43 141q0 39 31 78q14 16 30 49q6 13 18 37.5t17 36.5q48 101 74 129l629 627l-62 59q-35 35 -35 86t35 86l105 105q34 34 86 34q49 0 86 -34l16 -17l113 113q77 77 188 77h2q112 -1 193 -81q79 -79 82 -191q0 -112 -80 -192l-113 -113l17 -14q35 -35 35 -86t-35 -86 l-105 -105q-40 -37 -86 -37q-49 0 -86 37l-59 60l-627 -627q-27 -27 -127 -76q-40 -17 -74 -35q-23 -10 -51 -30q-38 -30 -75 -30h-5q-40 2 -88 50q-49 49 -49 90zM158 143l4 -5q4 -5 8 -9q12 -12 16 -14q9 5 11 8q54 33 65 39q34 15 76 37q77 32 96 51l627 627l-141 141 l-627 -627q-14 -12 -53 -96q-12 -29 -37 -76q-13 -26 -39 -63q-1 -2 -3 -6.5t-3 -6.5zM858 1235l418 -418l-39 -39l39 39q4 -2 8 -2t6 2l105 105q7 7 0 14l-92 94l190 191q47 47 47 112q-3 69 -49 115q-47 46 -114 48q-2 0 -4 1q-64 0 -109 -45l-191 -192l-94 96q-4 2 -8 2 t-6 -2l-107 -105q-4 -4 -4 -8t4 -8z" />
<glyph unicode="P" horiz-adv-x="1325" d="M84 -156v465v25q9 186 143 317t320 137h117h118q121 -5 224.5 -66.5t165.5 -164t67 -223.5v-25q0 -56 1 -56.5t1 56.5v-465q0 -51 -35.5 -85.5t-85.5 -34.5h-456h-459q-51 0 -86 34.5t-35 85.5zM195 23v-179q0 -10 10 -10h459h456q10 0 10 10l-2 465v2v19 q-7 139 -105.5 239t-236.5 109h-122h-127q-143 -11 -242.5 -117t-99.5 -250v-2v-286zM311 1202q0 145 103 247.5t248 102.5q146 0 249 -102.5t103 -247.5q0 -146 -103 -249t-249 -103q-145 0 -248 103t-103 249zM422 1202q0 -100 71 -170.5t169 -70.5q100 0 170.5 70.5 t70.5 170.5q0 98 -70.5 169t-170.5 71q-98 0 -169 -71t-71 -169z" />
<glyph unicode="Q" horiz-adv-x="1406" d="M35 55q0 23 16 39.5t39 16.5h1227q23 0 39 -16.5t16 -39.5t-16 -39t-39 -16h-1227q-23 0 -39 16t-16 39zM35 410q0 23 16 40t39 17h1227q23 0 39 -17t16 -40q0 -22 -16 -39t-39 -17h-1227q-23 0 -39 17t-16 39zM35 766q0 23 16 39t39 16h1227q23 0 39 -16t16 -39t-16 -39 t-39 -16h-1227q-23 0 -39 16t-16 39zM35 1120q0 23 16 39.5t39 16.5h1227q23 0 39 -16.5t16 -39.5t-16 -39t-39 -16h-1227q-23 0 -39 16t-16 39z" />
<glyph unicode="R" horiz-adv-x="1353" d="M63 1124q0 123 48.5 235.5t130.5 194t196 129.5t238 48q167 0 308.5 -81.5t223.5 -221.5t82 -304q0 -110 -53 -235t-154 -301q-21 -37 -51 -121q-27 -80 -49 -113q-16 -26 -47 -26h-500q-29 0 -45 22q-28 39 -69 139q-32 83 -56 123q-103 170 -153 285.5t-50 226.5z M174 1124q0 -91 46 -194t140 -260q23 -37 66 -140q19 -54 41 -92h436q14 31 25 66q28 87 59 139q94 164 143.5 277.5t49.5 203.5q0 134 -67.5 248t-183.5 181t-253 67q-136 0 -251.5 -67t-183 -181t-67.5 -248zM453 209q0 23 17 39t40 16h334q23 0 39 -16t16 -39t-16 -39 t-39 -16h-334q-23 0 -40 16t-17 39zM555 55q0 23 16 39.5t39 16.5h131q25 0 41.5 -16.5t16.5 -39.5t-16.5 -39t-41.5 -16h-131q-23 0 -39 16t-16 39z" />
<glyph unicode="S" horiz-adv-x="1388" d="M39 55q0 23 16 39.5t39 16.5h766q23 0 39 -16.5t16 -39.5t-16 -39t-39 -16h-766q-23 0 -39 16t-16 39zM39 303q0 23 16 39t39 16h1227q23 0 39 -16t16 -39t-16 -39t-39 -16h-1227q-23 0 -39 16t-16 39zM39 549q0 23 16 39t39 16h766q23 0 39 -16t16 -39t-16 -39t-39 -16 h-766q-23 0 -39 16t-16 39zM39 797q0 23 16 39t39 16h1227q23 0 39 -16t16 -39t-16 -39.5t-39 -16.5h-1227q-23 0 -39 16.5t-16 39.5zM39 1042q0 23 16 39.5t39 16.5h766q23 0 39 -16.5t16 -39.5t-16 -39t-39 -16h-766q-23 0 -39 16t-16 39zM39 1290q0 22 16 39t39 17h1227 q23 0 39 -17t16 -39q0 -23 -16 -39t-39 -16h-1227q-23 0 -39 16t-16 39z" />
<glyph unicode="T" horiz-adv-x="1382" d="M23 303q0 23 16 39t39 16h1227q23 0 39 -16t16 -39t-16 -39t-39 -16h-1227q-23 0 -39 16t-16 39zM23 797q0 23 16 39t39 16h1227q23 0 39 -16t16 -39t-16 -39.5t-39 -16.5h-1227q-23 0 -39 16.5t-16 39.5zM23 1290q0 22 16 39t39 17h1227q23 0 39 -17t16 -39 q0 -23 -16 -39t-39 -16h-1227q-23 0 -39 16t-16 39zM254 55q0 23 16 39.5t39 16.5h764q23 0 39 -16.5t16 -39.5t-16 -39t-39 -16h-764q-23 0 -39 16t-16 39zM254 549q0 23 16 39t39 16h764q23 0 39 -16t16 -39t-16 -39t-39 -16h-764q-23 0 -39 16t-16 39zM254 1042 q0 23 16 39.5t39 16.5h764q23 0 39 -16.5t16 -39.5t-16 -39t-39 -16h-764q-23 0 -39 16t-16 39z" />
<glyph unicode="U" horiz-adv-x="2015" d="M92 631v5q0 184 70 352q70 170 191.5 293.5t289.5 197.5t354 75h11q184 0 352.5 -71.5t290.5 -192.5t195.5 -288.5t74.5 -352.5v-10q-1 -181 -69 -347q-70 -170 -191 -293.5t-290 -197.5t-355 -75h-10q-184 0 -352.5 71.5t-291 192.5t-196 288.5t-74.5 352.5zM242 883 l102 -31q17 -4 28 -19t11 -32v-2v-332q0 -39 -35 -51l-100 -41q60 -176 192 -305q28 -28 90 -78l70 90q15 21 40 21q9 0 19 -3l318 -94q37 -9 41 -53v-117q256 3 461 154l-58 86q-11 13 -11 30.5t11 30.5l189 275q16 24 42 24q10 0 21 -4l101 -33q36 115 36 248 q0 125 -36 234l-117 -41q-11 -4 -21 -4q-25 0 -41 24l-194 270q-12 16 -12 32q0 15 10 30l69 106q-210 146 -458 146l2 -119q0 -39 -39 -53l-318 -101q-9 -3 -18 -3q-25 0 -41 22l-74 90q-205 -154 -280 -397zM729 801q0 40 37 53l311 102q11 4 21 4q24 0 41 -22l198 -260 q11 -18 11 -33q0 -17 -11 -35l-198 -268q-17 -22 -41 -22q-10 0 -21 4l-307 98q-17 4 -27 18.5t-10 32.5z" />
<glyph unicode="V" horiz-adv-x="1937" d="M82 238q0 335 92 616q68 216 174 363q63 89 129 155q73 73 158 131q154 107 362 174q290 92 617 92h16q64 0 101 -4q51 -4 82.5 -35.5t35.5 -82.5q5 -58 4 -120q0 -110 -14 -233q-50 -437 -233 -716q-60 -95 -148 -183l-2 -2q-82 -82 -182 -147q-281 -184 -717 -234 q-141 -16 -238 -16q-59 0 -114 6q-51 4 -83 36t-36 83q-4 37 -4 117zM193 238q0 -74 2 -107q2 -11 6 -14.5t14 -3.5q58 -7 104 -7q83 0 226 17q402 43 669 215q89 61 164 133v2q73 73 133 164q174 267 218 670q14 118 14 221q0 56 -4 108q0 19 -19 19q-31 4 -90 4h-16 q-312 0 -584 -88q-195 -62 -332 -158q-69 -48 -143 -119q-72 -76 -117 -141q-97 -141 -159 -334q-86 -272 -86 -581zM647 609q0 23 15 40l90 88l-78 78q-15 17 -15 40t15 38q17 17 40 17t38 -17l77 -76l62 60l-76 75q-15 17 -15 40t15 38q17 17 40 17t38 -17l76 -74l61 60 l-76 76q-17 17 -17 39.5t17 37.5q17 17 40 17t38 -17l76 -73l88 88q17 17 40 17t40 -17q15 -17 15 -40t-15 -38l-90 -90l78 -78q17 -15 17 -38t-17 -40q-16 -16 -39 -16t-39 16l-78 78l-61 -61l77 -76q17 -17 17 -40t-17 -40q-16 -16 -39 -16q-22 0 -38 16l-78 78l-62 -62 l76 -73q17 -17 17 -40t-17 -40t-39 -17t-39 17l-76 75l-88 -88q-16 -16 -39 -16q-24 0 -40 16q-15 15 -15 38z" />
<glyph unicode="W" horiz-adv-x="2004" d="M88 639q0 186 72.5 355t194.5 291t291 194.5t355 72.5t356 -72.5t292.5 -194.5t195 -291t72.5 -355t-72.5 -355.5t-195 -292t-292.5 -195t-356 -72.5t-355 72.5t-291 195t-194.5 292t-72.5 355.5zM199 639q0 -164 63.5 -313t171 -256.5t256 -171.5t311.5 -64 q218 0 403.5 108t293.5 293.5t108 403.5q0 217 -108 402t-293.5 293t-403.5 108q-217 0 -402 -108t-292.5 -293t-107.5 -402zM800 146.5q0 22.5 15 39.5l447 447l-447 459q-15 15 -15 37.5t17 39.5q15 15 38 15t40 -17l485 -497q15 -15 15 -38t-15 -40l-485 -483 q-17 -17 -39 -17q-24 0 -41 17q-15 15 -15 37.5z" />
<glyph unicode="X" horiz-adv-x="2039" d="M84 659q0 278 153 512t408 347q22 9 43.5 0t32.5 -31q9 -22 0 -43.5t-31 -30.5q-224 -98 -357.5 -303.5t-133.5 -450.5q0 -167 65 -319t175 -262t262 -175t319 -65t319 65t262 175t175 262t65 319q0 248 -136.5 453.5t-365.5 302.5q-22 9 -30.5 31.5t0.5 44.5t30.5 31 t44.5 0q260 -110 416 -345.5t156 -517.5q0 -190 -74.5 -363t-199.5 -298.5t-298.5 -199.5t-363.5 -74t-363.5 74t-298.5 199.5t-199.5 298.5t-74.5 363zM934 1108v518q0 36 25 61t61 25q35 0 60.5 -25.5t25.5 -60.5v-518q0 -35 -25.5 -60.5t-60.5 -25.5q-36 0 -61 25t-25 61 z" />
<glyph unicode="Y" d="M90 639q0 186 72.5 355t195 291t291.5 194.5t355 72.5t355.5 -72.5t292 -194.5t195 -291t72.5 -355t-72.5 -355.5t-195 -292t-292 -195t-355.5 -72.5t-355 72.5t-291.5 195t-195 292t-72.5 355.5zM201 639q0 -218 108 -403.5t293 -293.5t402 -108q164 0 312.5 64 t256.5 171.5t171.5 256.5t63.5 313q0 163 -63.5 311.5t-171.5 256t-257 171.5t-312 64q-217 0 -402 -108t-293 -293t-108 -402zM458 821q0 24 15 39q17 17 40 17t40 -15l457 -446l446 444q17 17 40 17t38 -17q16 -13 16 -39q0 -23 -16 -39l-483 -485q-17 -15 -40 -15t-38 15 l-498 485q-17 15 -17 39z" />
<glyph unicode="Z" horiz-adv-x="2172" d="M94 639q0 186 72.5 355t195 291t292.5 194.5t356 72.5q238 0 442.5 -114t329.5 -311t139 -433h219l-278 -270l-271 270h219q-11 154 -78 292.5t-173 238.5t-249.5 158.5t-299.5 58.5q-218 0 -403.5 -108t-293.5 -293t-108 -402q0 -218 108 -403.5t293.5 -293.5 t403.5 -108q188 0 358 86l47 -102q-196 -94 -405 -94q-186 0 -356 72.5t-292.5 195t-195 292t-72.5 355.5z" />
<glyph unicode="[" horiz-adv-x="2131" d="M43 1462q0 23 16 39.5t39 16.5h267q36 0 51 -33l92 -201h1358l57 191q6 21 26 31.5t42 4.5q23 -7 34 -27t3 -42l-293 -979q-13 -41 -54 -41h-864q-33 0 -51 33l-436 952h-232q-23 0 -39 16t-16 39zM559 1174l293 -642h788l193 642h-1274zM825 186q0 76 55.5 131.5 t131.5 55.5t130 -55t54 -132t-54 -131.5t-130 -54.5q-77 0 -132 55t-55 131zM936 186q0 -31 22 -53t54 -22q31 0 52 22t21 53t-21.5 53.5t-51.5 22.5q-32 0 -54 -22.5t-22 -53.5zM1364 186q0 77 54 132t130 55t131.5 -55.5t55.5 -131.5t-55 -131t-132 -55q-76 0 -130 54.5 t-54 131.5zM1475 186q0 -31 21 -53t52 -22t53.5 22t22.5 53t-22.5 53.5t-53.5 22.5q-30 0 -51.5 -22.5t-21.5 -53.5z" />
<glyph unicode="\" horiz-adv-x="1632" d="M137 -156v822v981q0 50 35 85t86 35h1114q50 0 85.5 -35.5t35.5 -84.5v-822v-981q0 -51 -35.5 -85.5t-85.5 -34.5h-1114q-51 0 -86 34.5t-35 85.5zM248 59q0 -10 10 -10h1114q10 0 10 10v1588q0 10 -10 10h-903h-211q-10 0 -10 -10v-1588zM721 -115q0 -38 28 -66t66 -28 t66 28t28 66t-28 66.5t-66 28.5t-66 -28.5t-28 -66.5z" />
<glyph unicode="]" horiz-adv-x="1851" d="M102 -156v1125q0 24 9 45q0 8 8 24l149 240l4 4q14 29 47 29h197v39q0 182 116 299.5t294 117.5q177 0 292 -118t115 -299v-39h197q39 0 53 -39l146 -234q1 -3 3 -8t3 -8q12 -24 12 -53v-1125q0 -51 -35 -85.5t-86 -34.5h-1403q-50 0 -85.5 34.5t-35.5 85.5zM213 -156 q0 -10 10 -10h1403q10 0 10 10v1125q0 10 -10 10h-1403q-10 0 -10 -10v-1125zM283 1090h233v110h-166zM627 1090h596v110h-596v-110zM627 1311h596v39q0 136 -83 221.5t-214 85.5q-132 0 -215.5 -85.5t-83.5 -221.5v-39zM1333 1090h232l-68 110h-164v-110z" />
<glyph unicode="^" horiz-adv-x="1740" d="M121 176v1124q0 121 92 223t255 163t363 67h3h34h58q195 -9 354 -70.5t249.5 -162.5t90.5 -220v-1124q0 -95 -59.5 -180.5t-171.5 -149.5q-212 -122 -519 -122h-4q-299 0 -514 124q-112 63 -171.5 147.5t-59.5 180.5zM231 176q0 -63 46 -123t131 -110q192 -109 460 -109 h2q271 0 463 109q176 103 176 233v1124q0 86 -78.5 162t-214.5 124.5t-296 55.5h-52h-32q-164 -5 -303.5 -52.5t-220.5 -124.5t-81 -165v-1124zM315 414v817q0 97 69.5 166t166.5 69h639q97 0 165 -69t68 -166v-817q0 -98 -68 -167t-165 -69h-639q-97 0 -166.5 69t-69.5 167 zM426 414q0 -52 37 -88.5t88 -36.5h639q51 0 87 36.5t36 88.5v817q0 51 -36 88t-87 37h-639q-51 0 -88 -37t-37 -88v-817zM776 10q0 39 27.5 66.5t66.5 27.5q38 0 66.5 -28t28.5 -66t-28.5 -66t-66.5 -28q-39 0 -66.5 27.5t-27.5 66.5z" />
<glyph unicode="_" horiz-adv-x="1495" d="M86 55v799q0 23 16 39t39 16h197v260q0 182 116 300t294 118q177 0 292 -118t115 -300v-260h199q22 0 38.5 -16t16.5 -39v-799q0 -23 -16.5 -39t-38.5 -16h-1213q-23 0 -39 16t-16 39zM197 111h1101v688h-1101v-688zM449 909h595v260q0 135 -83 221.5t-213 86.5 q-132 0 -215.5 -86.5t-83.5 -221.5v-260zM610 565q0 50 42 86.5t96 36.5q52 0 93.5 -36.5t41.5 -86.5q0 -36 -22.5 -66t-57.5 -46v-230q0 -23 -16 -40t-39 -17t-39.5 17t-16.5 40v230q-35 16 -58.5 46.5t-23.5 65.5z" />
<glyph unicode="`" d="M90 639q0 186 72.5 355t195 291t291.5 194.5t355 72.5t355.5 -72.5t292 -194.5t195 -291t72.5 -355t-72.5 -355.5t-195 -292t-292 -195t-355.5 -72.5t-355 72.5t-291.5 195t-195 292t-72.5 355.5zM201 639q0 -218 108 -403.5t293 -293.5t402 -108q164 0 312.5 64 t256.5 171.5t171.5 256.5t63.5 313q0 163 -63.5 311.5t-171.5 256t-257 171.5t-312 64q-217 0 -402 -108t-293 -293t-108 -402zM478 1094.5q3 16.5 14 27.5q28 28 59 15l694 -246q12 -3 21 -13t12 -22l225 -674q13 -33 -14 -57q-14 -14 -37 -14q-14 0 -20 4l-650 250 q-21 9 -30 30l-271 668q-6 15 -3 31.5zM846 459l516 -199l-180 537l-95 -95q-3 6 -8 11q-31 31 -74.5 31t-74.5 -31t-31 -75t31 -75q6 -6 10 -8z" />
<glyph unicode="a" horiz-adv-x="1587" d="M135 -156v1803q0 50 35 85t86 35h410h108l2 -2l713 -714h2v-111v-1096q0 -51 -35.5 -85.5t-85.5 -34.5h-1114q-51 0 -86 34.5t-35 85.5zM246 -156q0 -10 10 -10h1114q10 0 10 10v1096h-594q-51 0 -85.5 36t-34.5 87v594h-410q-10 0 -10 -10v-1803zM328 172q0 23 16 39 t39 16h860q23 0 39 -16t16 -39t-16 -39t-39 -16h-860q-23 0 -39 16t-16 39zM328 436q0 23 16 39.5t39 16.5h860q23 0 39 -16.5t16 -39.5t-16 -39t-39 -16h-860q-23 0 -39 16t-16 39zM328 702q0 22 16 39t39 17h860q23 0 39 -17t16 -39q0 -23 -16 -40t-39 -17h-860 q-23 0 -39 17t-16 40zM776 1063q0 -12 10 -12h547l-557 557v-545z" />
<glyph unicode="b" horiz-adv-x="1587" d="M135 -156v1803q0 50 35 85t86 35h410h108l2 -2l713 -714h2v-111v-1096q0 -51 -35.5 -85.5t-85.5 -34.5h-1114q-51 0 -86 34.5t-35 85.5zM246 -156q0 -10 10 -10h1114q10 0 10 10v1096h-594q-51 0 -85.5 35.5t-34.5 85.5v596h-410q-10 0 -10 -10v-1803zM328 377 q0 30 24 47l295 186q19 12 41.5 7.5t34.5 -23.5q12 -20 7.5 -43t-23.5 -35l-222 -139l222 -144q20 -12 24 -34.5t-8 -40.5q-17 -27 -47 -27q-16 0 -29 10l-295 189q-24 15 -24 47zM776 1061q0 -10 10 -10h547l-557 557v-547zM896 199q4 22 24 34l221 144l-221 139 q-20 12 -24 35l-2 12q0 16 9 31q12 20 34 24q6 1 12 1q16 0 30 -9l295 -186q24 -17 24 -47t-24 -47l-295 -189q-13 -10 -29 -10q-30 0 -47 27q-9 14 -9 29z" />
<glyph unicode="c" horiz-adv-x="1736" d="M111 -156v1413q0 51 35 87t85 36h408h111v-2l469 -567l2 -2v-109v-856q0 -51 -35 -85.5t-86 -34.5h-869q-50 0 -85 34.5t-35 85.5zM221 -156q0 -10 10 -10h869q10 0 10 10v856h-350q-50 0 -85.5 35t-35.5 86v447h-408q-10 0 -10 -11v-1413zM293 39q0 23 16 39t39 16h635 q23 0 39 -16t16 -39t-16 -39t-39 -16h-635q-23 0 -39 16t-16 39zM293 270q0 23 16 39.5t39 16.5h635q23 0 39 -16.5t16 -39.5q0 -22 -16 -38.5t-39 -16.5h-635q-23 0 -39 16.5t-16 38.5zM293 504q0 23 16 39t39 16h635q23 0 39 -16t16 -39t-16 -39t-39 -16h-635 q-23 0 -39 16t-16 39zM532 1450v195q0 51 35.5 85.5t85.5 34.5h408h110l471 -569v-2v-109v-854q0 -51 -34.5 -85.5t-85.5 -34.5h-224v110h224q10 0 10 10v854h-350q-50 0 -85.5 35.5t-35.5 85.5v449h-408q-10 0 -10 -10v-195h-111zM750 821q0 -10 10 -10h315l-325 393v-383z M1171 1206q0 -3 4 -6.5t7 -3.5h315l-326 395v-385z" />
<glyph unicode="d" horiz-adv-x="1734" d="M135 -156v1803q0 50 35 85t86 35h410h108l2 -2l713 -714h2v-111v-661h-111v661h-594q-51 0 -85.5 36t-34.5 87v594h-410q-10 0 -10 -10v-1803q0 -10 10 -10h1114q10 0 10 10v99h111v-99q0 -51 -35.5 -85.5t-85.5 -34.5h-1114q-51 0 -86 34.5t-35 85.5zM776 1063 q0 -12 10 -12h547l-557 557v-545zM1184 51v121h504v-121h-504z" />
<glyph unicode="e" horiz-adv-x="2260" d="M135 121v1063v110v107q0 50 35 85.5t86 35.5h621q49 0 84.5 -35.5t35.5 -85.5v-107h389h474h10v-2q44 -3 75.5 -34t34.5 -74v-10v-291h-110v291v10h-1624v-1063q0 -10 10 -10h1520v-111h-1520q-51 0 -86 35.5t-35 85.5zM246 1294h641v107q0 3 -3.5 6.5t-6.5 3.5h-621 q-10 0 -10 -10v-107zM1299 562q0 132 92 224q94 94 225 94t225 -94q78 -79 90 -189q2 -19 2 -38q0 -88 -47 -162l127 -127l111 -110l33 -33q18 -18 18 -37.5t-8.5 -31t-24.5 -27.5q-15 -15 -25 -22q-11 -7 -27 -8h-2q-15 0 -30 13q-4 2 -8 6l-90 91l-180 180 q-75 -46 -162 -46q-18 0 -38 2q-110 12 -189 91q-92 92 -92 224zM1406 564.5q0 -86.5 62 -146.5q60 -62 146.5 -62t146.5 62q61 60 61 146.5t-61 146.5q-60 61 -146.5 61t-146.5 -61q-62 -60 -62 -146.5z" />
<glyph unicode="f" horiz-adv-x="1884" d="M119 121v1206q0 49 35.5 85t85.5 36h356v68q0 23 16 39t39 16t39.5 -16t16.5 -39v-68h469v68q0 23 16 39t39 16t39 -16t16 -39v-68h356q51 0 86 -35.5t35 -85.5v-1206q0 -50 -35 -85.5t-86 -35.5h-1402q-50 0 -85.5 36t-35.5 85zM229 121q0 -3 3.5 -6.5t7.5 -3.5h1402 q4 0 7.5 3.5t3.5 6.5v813h-1424v-813zM229 1044h1424v283q0 10 -11 10h-356v-24q0 -23 -16 -39.5t-39 -16.5t-39 16.5t-16 39.5v24h-469v-24q0 -23 -16.5 -39.5t-39.5 -16.5t-39 16.5t-16 39.5v24h-356q-11 0 -11 -10v-283zM455 340v111h110v-111h-110zM455 606v111h110 v-111h-110zM653 395q0 23 16.5 39.5t39.5 16.5h663q23 0 39 -16.5t16 -39.5t-16 -39t-39 -16h-663q-23 0 -39.5 16t-16.5 39zM653 662q0 23 16.5 39t39.5 16h663q23 0 39 -16t16 -39t-16 -39.5t-39 -16.5h-663q-23 0 -39.5 16.5t-16.5 39.5z" />
<glyph unicode="g" horiz-adv-x="2246" d="M100 -156v1205q0 51 35 86.5t86 35.5h1432q51 0 87 -35.5t36 -86.5v-1205q0 -51 -36 -85.5t-87 -34.5h-1432q-51 0 -86 34.5t-35 85.5zM211 -156q0 -10 10 -10h1432q10 0 10 10v813h-1452v-813zM211 768h1452v281q0 12 -10 12h-1432q-10 0 -10 -12v-281zM307 911 q0 23 16 39.5t39 16.5t39.5 -16.5t16.5 -39.5t-16.5 -39t-39.5 -16t-39 16t-16 39zM444 911q0 23 16.5 39.5t39.5 16.5t39 -16.5t16 -39.5t-16 -39t-39 -16t-39.5 16t-16.5 39zM471 1255v394q0 49 35.5 84.5t85.5 35.5h1433q50 0 85.5 -35.5t35.5 -84.5v-1207 q0 -49 -35.5 -84.5t-85.5 -35.5h-167v110h167q11 0 11 10v813h-1454h-111zM582 911q0 23 16 39.5t39 16.5t39 -16.5t16 -39.5t-16 -39t-39 -16t-39 16t-16 39zM582 1366h1454v283q0 3 -4 6.5t-7 3.5h-1433q-3 0 -6.5 -3.5t-3.5 -6.5v-283z" />
<glyph unicode="h" horiz-adv-x="2084" d="M119 121v1206q0 50 35 85.5t86 35.5h456v151q0 23 16.5 39.5t39.5 16.5h6h6h555h6h6q23 0 39 -16.5t16 -39.5v-151h457q51 0 86 -35.5t35 -85.5v-1206q0 -50 -35 -85.5t-86 -35.5h-1603q-51 0 -86 35.5t-35 85.5zM229 121q0 -3 3.5 -6.5t7.5 -3.5h1603q10 0 10 10v813 h-669v-27q0 -23 -16.5 -39t-39.5 -16h-174q-23 0 -39 16t-16 39v27h-670v-813zM229 1044h1624v283q0 10 -10 10h-1603q-11 0 -11 -10v-283zM807 1448h469v96h-469v-96z" />
<glyph unicode="i" horiz-adv-x="2004" d="M88 639q0 186 72.5 355t194.5 291t291 194.5t355 72.5t356 -72.5t292.5 -194.5t195 -291t72.5 -355t-72.5 -355.5t-195 -292t-292.5 -195t-356 -72.5t-355 72.5t-291 195t-194.5 292t-72.5 355.5zM199 639q0 -164 63.5 -313t171 -256.5t256 -171.5t311.5 -64 q218 0 403.5 108t293.5 293.5t108 403.5q0 217 -108 402t-293.5 293t-403.5 108q-217 0 -402 -108t-292.5 -293t-107.5 -402zM946 639v526q0 23 16.5 39.5t38.5 16.5q23 0 40.5 -16.5t17.5 -39.5v-518l280 -282q17 -15 17 -38t-17 -40q-15 -15 -38.5 -15t-38.5 15l-299 299 q-18 18 -15 45q0 2 -1 4.5t-1 3.5z" />
<glyph unicode="j" horiz-adv-x="1988" d="M88 475v309q0 34 24 62.5t56 32.5l55 8l70 6q10 28 20 47l-47 53l-33 45q-16 24 -16 53q0 5 1 11q3 36 26 59l219 219q25 25 61 28h9q30 0 53 -17l45 -33l53 -45q8 3 23.5 9t23.5 9l6 70l8 55q4 33 32.5 56.5t62.5 23.5h309q34 0 62 -23.5t32 -56.5l8 -55l6 -70l48 -18 l53 45l45 33q24 17 55 17h9q36 -3 59 -28l219 -219q25 -23 27 -59q1 -4 1 -8q0 -31 -18 -56l-33 -45l-45 -53q3 -8 9.5 -23.5t9.5 -23.5l69 -6l56 -8q33 -4 56.5 -32.5t23.5 -62.5v-309q0 -34 -23.5 -62t-56.5 -32l-56 -8l-69 -6q-3 -8 -9.5 -24t-9.5 -24l45 -53l33 -45 q18 -23 18 -54q0 -4 -1 -8q-2 -36 -27 -61l-219 -219q-23 -23 -59 -26h-10q-30 0 -54 16l-45 33l-53 47q-24 -12 -48 -21l-6 -69l-8 -56q-4 -32 -32 -55.5t-62 -23.5h-309q-34 0 -62.5 23.5t-32.5 55.5l-8 56l-6 69q-20 7 -47 21l-53 -47l-45 -33q-23 -17 -53 -17h-9 q-36 3 -61 27l-219 219q-23 25 -26 61q-1 6 -1 11q0 29 16 51l33 45l47 53q-8 16 -20 48l-70 6l-55 8q-32 5 -56 32.5t-24 61.5zM186 477l52 -8l26 -2l103 -8q12 -40 18 -58q3 -7 8 -20.5t8 -20.5q10 -23 29 -53l-68 -80l-16 -18l-31 -43l215 -215l43 31l19 16l80 68 q30 -19 53 -29q7 -3 20.5 -8.5t20.5 -8.5q27 -9 57 -18l8 -102l3 -27l8 -51h305l8 51l2 27l8 102q40 12 58 18q4 2 19 8t22 9q23 10 53 29l80 -68l20 -16l41 -31l215 215l-31 43l-16 18l-65 80q22 44 26 53q16 37 17 41q12 26 18 58l104 8l25 2l51 8v305l-51 9l-25 2l-104 8 q-6 30 -18 57q-5 16 -17 41q-4 9 -26 53l65 80l16 21l31 41l-215 215l-41 -31l-20 -16l-80 -66q-3 2 -22.5 12t-30.5 15q-20 10 -41 16q-26 12 -58 18l-8 105l-2 24l-8 52h-305l-8 -52l-3 -24l-8 -105q-30 -6 -57 -18q-11 -3 -41 -16q-11 -5 -30.5 -15t-22.5 -12l-80 66 l-19 16l-43 31l-215 -215l31 -41l16 -21l68 -80q-19 -30 -29 -53q-3 -7 -8.5 -21t-7.5 -20q-9 -27 -18 -57l-103 -8l-26 -2l-52 -9v-305zM686 631q0 128 90 218.5t219 90.5q128 0 219 -91t91 -218q0 -129 -91 -219t-219 -90q-129 0 -219 90t-90 219zM782 631 q0 -88 62.5 -150.5t150.5 -62.5q86 0 148.5 62.5t62.5 150.5q0 86 -62.5 148.5t-148.5 62.5q-88 0 -150.5 -62.5t-62.5 -148.5z" />
<glyph unicode="k" horiz-adv-x="1789" d="M114 828q-21 80 -21.5 160t21.5 161q42 161 162 281q91 89 205.5 135.5t235.5 46.5q122 0 236.5 -46.5t205.5 -135.5q101 -102 147 -234q35 -102 35 -206q0 -32 -3 -64q-14 -137 -85 -256q-4 -20 -10 -29l445 -444q26 -27 28 -53v-8q0 -22 -8 -36q-10 -18 -31 -39 l-20 -20q-21 -21 -39 -31q-14 -8 -32 -9q-4 0 -10 1q-26 3 -52 29l-447 446q-3 -2 -8 -5t-8 -5q-156 -102 -344 -102q-121 0 -235.5 46.5t-205.5 135.5q-120 121 -162 281zM205 987q0 -103 38.5 -196.5t110.5 -165.5q74 -72 168 -111t195 -39q103 0 196.5 39t165.5 111 q99 99 134 231q18 66 17.5 132t-17.5 132q-35 132 -134 230q-148 151 -362 151q-102 0 -196 -39t-167 -112q-72 -72 -110.5 -166t-38.5 -197zM455 928v121h202v202h121v-202h203v-121h-203v-203h-121v203h-202z" />
<glyph unicode="l" horiz-adv-x="2285" d="M121 121v1278q0 50 35 85.5t86 35.5h1802q51 0 86 -35.5t35 -85.5v-1278q0 -50 -35 -85.5t-86 -35.5h-1802q-51 0 -86 35.5t-35 85.5zM231 121q0 -3 3.5 -6.5t7.5 -3.5h1802q10 0 10 10v782h-1823v-782zM231 1186h1823v213q0 10 -10 10h-1802q-4 0 -7.5 -3.5t-3.5 -6.5 v-213zM457 391q0 23 16 39t39 16h684q23 0 39 -16t16 -39t-16 -39t-39 -16h-684q-23 0 -39 16t-16 39zM457 639q0 23 16 39t39 16h860q23 0 39 -16t16 -39t-16 -39t-39 -16h-860q-23 0 -39 16t-16 39zM1589 453v241h240v-241h-240z" />
<glyph unicode="m" horiz-adv-x="1861" d="M98 330v1206q0 50 35 85.5t86 35.5h1403q51 0 86 -35.5t35 -85.5v-408v-798q0 -50 -35 -85.5t-86 -35.5h-231v-209l-375 209h-797q-51 0 -86 35.5t-35 85.5zM209 330q0 -11 10 -11h172h653l25 -12l174 -98l37 -21v21v110h111h231q10 0 10 11v798v121v287q0 10 -10 10 h-1403q-10 0 -10 -10v-1206zM516 831v154h154v-154h-154zM844 831v154h153v-154h-153zM1171 831v154h154v-154h-154z" />
<glyph unicode="n" horiz-adv-x="1705" d="M27 68l69 303q6 24 10 28l1068 1065l169 170q20 20 49 20q8 0 18 -2q40 -7 73 -40l170 -170q24 -23 24 -48q0 -29 -32 -61l-170 -170l-1065 -1067q-2 -2 -6.5 -6t-8.5 -6.5t-8 -3.5l-297 -78q-8 -2 -15 -2q-20 0 -34 14q-17 17 -17 37q0 8 3 17zM147 137l195 49l12 11 l-147 147l-10 -12zM285 422l147 -148l926 928l-148 146zM1288 1425l148 -147l112 113l-147 147z" />
<glyph unicode="o" horiz-adv-x="1591" d="M94 971v110v88q0 51 35 86t86 35h238v154q0 23 16 39t39 16h4h4h557q2 0 4 -2q2 2 6 2q23 0 39.5 -16t16.5 -39v-154h237q51 0 86 -35t35 -86v-88v-110h-104v-1127q0 -51 -35 -85.5t-86 -34.5h-953q-51 0 -85.5 34.5t-34.5 85.5v1127h-105zM205 1081h1181v88q0 11 -10 11 h-1161q-10 0 -10 -11v-88zM309 -156q0 -10 10 -10h953q10 0 10 10v1127h-973v-1127zM485 -68v910h111v-910h-111zM563 1290h465v99h-465v-99zM741 -68v910h111v-910h-111zM997 -68v910h111v-910h-111z" />
<glyph unicode="p" horiz-adv-x="1325" d="M84 -156v465v25q9 186 143 317t320 137h117h118q121 -5 224.5 -66.5t165.5 -164t67 -223.5v-25q0 -56 1 -56.5t1 56.5v-465q0 -51 -35.5 -85.5t-85.5 -34.5h-456h-459q-51 0 -86 34.5t-35 85.5zM195 23v-179q0 -10 10 -10h459h456q10 0 10 10l-2 465v2v19 q-7 139 -104.5 238t-235.5 110l-81 -107l88 -530l-133 -150l-132 150l88 530l-81 107q-143 -11 -242.5 -117t-99.5 -250v-2v-286zM311 1202q0 145 103 247.5t248 102.5q146 0 249 -102.5t103 -247.5q0 -146 -103 -249t-249 -103q-145 0 -248 103t-103 249zM422 1202 q0 -100 71 -170.5t169 -70.5q100 0 170.5 70.5t70.5 170.5q0 98 -70.5 169t-170.5 71q-98 0 -169 -71t-71 -169zM525 678h1h1h1h9h-2h-10zM788 678z" />
<glyph unicode="q" horiz-adv-x="1021" d="M117 131v307v164v404v196v2q0 129 92 221.5t221 92.5t221 -92.5t92 -221.5v-2v-911q0 -92 -61 -150q-61 -61 -150 -61q-88 0 -149 61.5t-61 149.5v475q0 23 16 39t39 16t39 -16t16 -39v-475q0 -41 29.5 -71t70.5 -30q43 0 72 29t29 72v907v4v2q0 83 -59 142.5t-144 60.5 q-85 -1 -144 -60.5t-59 -142.5v-2v-2v-194v-404v-164v-307q0 -123 87 -210t210 -87q126 0 211 88q88 85 88 209v813q0 23 16.5 39t39.5 16t39 -16t16 -39v-813q0 -167 -119 -289q-121 -118 -291 -118q-169 0 -288 119t-119 288z" />
<glyph unicode="r" horiz-adv-x="1843" d="M41 840q0 23 16 39t39 16l215 2q15 191 140 338l-152 149q-17 17 -17 40t17 40q15 15 39 15t39 -15l151 -151q151 122 338 137v217q0 23 16.5 39t39.5 16t39 -16t16 -39v-217q190 -15 338 -137l151 151q17 15 40 15t38 -15q17 -17 17 -40t-17 -38l-149 -151 q124 -150 139 -340l213 2q23 0 39 -16.5t16 -38.5q0 -24 -16 -41t-39 -17h-215q-20 -130 -131 -344l143 -143q17 -17 17 -40t-15 -40q-19 -16 -41 -16q-20 0 -39 16l-120 123q-3 -5 -8.5 -14.5t-8.5 -14.5q-21 -37 -51 -121q-24 -70 -49 -114q-18 -25 -47 -25h-500 q-29 0 -45 23q-32 43 -70 139q-32 82 -57 123q-4 8 -4 10l-129 -129q-16 -16 -39 -16t-39 16q-17 17 -17 40t17 38l147 149q-116 206 -133 340h-217q-23 0 -39 16.5t-16 39.5zM420 848q0 -93 46 -197t140 -258q33 -56 64 -139q24 -60 43 -92h436q15 34 25 65q33 95 59 140 q94 166 143 278t49 203q0 134 -67 248t-183 180.5t-253 66.5q-136 0 -251.5 -66.5t-183 -180.5t-67.5 -248zM558 776q-1 4 -1 8q0 18 12 35l154 207q18 23 46 23h7q35 -7 45 -39l66 -203l133 158q14 16 39 20q28 0 43 -18l168 -176q17 -17 17 -39q0 -23 -17 -39 q-17 -17 -40 -16t-40 18l-125 131l-156 -187q-14 -20 -43 -20h-10q-30 6 -43 39l-63 196l-93 -122q-13 -19 -35.5 -22t-41.5 11q-19 13 -22 35zM698 -68q0 23 16.5 39.5t39.5 16.5h336q23 0 39 -16.5t16 -39.5t-16 -39t-39 -16h-336q-23 0 -39.5 16t-16.5 39zM801 -221 q0 23 16 39t39 16h131q23 0 39 -16t16 -39t-16 -39t-39 -16h-131q-23 0 -39 16t-16 39z" />
<glyph unicode="s" horiz-adv-x="1388" d="M12 303q0 23 16.5 39t39.5 16h1226q23 0 39.5 -16t16.5 -39t-16.5 -39t-39.5 -16h-1226q-23 0 -39.5 16t-16.5 39zM12 797q0 23 16.5 39t39.5 16h1226q23 0 39.5 -16t16.5 -39t-16.5 -39.5t-39.5 -16.5h-1226q-23 0 -39.5 16.5t-16.5 39.5zM12 1290q0 22 16.5 39t39.5 17 h1226q23 0 39.5 -17t16.5 -39q0 -23 -16.5 -39t-39.5 -16h-1226q-23 0 -39.5 16t-16.5 39zM473 55q0 23 16 39.5t39 16.5h766q23 0 39.5 -16.5t16.5 -39.5t-16.5 -39t-39.5 -16h-766q-23 0 -39 16t-16 39zM473 549q0 23 16 39t39 16h766q23 0 39.5 -16t16.5 -39t-16.5 -39 t-39.5 -16h-766q-23 0 -39 16t-16 39zM473 1042q0 23 16 39.5t39 16.5h766q23 0 39.5 -16.5t16.5 -39.5t-16.5 -39t-39.5 -16h-766q-23 0 -39 16t-16 39z" />
<glyph unicode="t" horiz-adv-x="1415" d="M39 55q0 23 16 39.5t39 16.5h1227q23 0 39 -16.5t16 -39.5t-16 -39t-39 -16h-1227q-23 0 -39 16t-16 39zM39 303q0 23 16 39t39 16h1227q23 0 39 -16t16 -39t-16 -39t-39 -16h-1227q-23 0 -39 16t-16 39zM39 549q0 23 16 39t39 16h1227q23 0 39 -16t16 -39t-16 -39 t-39 -16h-1227q-23 0 -39 16t-16 39zM39 797q0 23 16 39t39 16h1227q23 0 39 -16t16 -39t-16 -39.5t-39 -16.5h-1227q-23 0 -39 16.5t-16 39.5zM39 1042q0 23 16 39.5t39 16.5h1227q23 0 39 -16.5t16 -39.5t-16 -39t-39 -16h-1227q-23 0 -39 16t-16 39zM39 1290q0 22 16 39 t39 17h1227q23 0 39 -17t16 -39q0 -23 -16 -39t-39 -16h-1227q-23 0 -39 16t-16 39z" />
<glyph unicode="u" horiz-adv-x="2004" d="M88 639q0 186 72.5 355t194.5 291t291 194.5t355 72.5t356 -72.5t292.5 -194.5t195 -291t72.5 -355q0 -171 -61 -328.5t-166.5 -277t-252 -199t-311.5 -102.5q-12 -4 -18 -4q-4 0 -6 2q-49 -6 -101 -6q-186 0 -355 72.5t-291 195t-194.5 292t-72.5 355.5zM199 639 q0 -203 94 -378t254 -286q247 231 330 451q-100 21 -197 55q-256 87 -477 242q-4 -58 -4 -84zM225 844q220 -164 496 -260q128 -40 188 -52q15 77 15 140q0 24 -2 47q-8 96 -48 189.5t-86 156.5t-103 120t-85.5 79t-46.5 35l-2 1h-2q-119 -80 -203 -198t-121 -258zM647 -82 q168 -84 354 -84q10 0 31 1t31 1q59 275 82 557q-65 2 -158 13q-88 -245 -340 -488zM653 1362q38 -29 76.5 -64t92 -97.5t94.5 -129t74.5 -157.5t41.5 -185q3 -31 2 -62q0 -78 -16 -155q90 -8 133 -10q5 100 5 196q0 412 -91 742q-20 2 -64 2q-182 0 -348 -80zM1180 -145 q236 52 407 233q-127 157 -178 324q-93 -15 -154 -17q-19 -258 -75 -540zM1184 1421q41 -150 68 -383q17 -150 17 -328q0 -99 -5 -206q36 2 120 14q-7 42 -7 90q0 30 3 62q7 81 34 158t59 129t67 95t55.5 62t26.5 23q4 4 6 4q-84 105 -198 177t-246 103zM1491 659 q-3 -27 -3 -52q0 -33 5 -64q160 42 313 133q-12 209 -114 375l-1 -1q-85 -74 -141 -187q-50 -99 -59 -204zM1518 434q39 -126 141 -258q120 168 141 371q-131 -71 -282 -113z" />
<glyph unicode="v" horiz-adv-x="2217" d="M92 1424v6q3 21 18.5 35t36.5 14h209q-2 49 -2 88q-3 23 15 41q16 16 41 16h1392q23 0 39 -16q17 -14 17 -41q0 -1 -1 -13t-1.5 -32.5t-0.5 -42.5h216q22 0 37 -13.5t18 -35.5v-6q2 -30 2 -60v-5q0 -31 -4 -95q-6 -70 -20 -129.5t-47 -130t-81 -119.5q-72 -72 -170 -99 q-10 -87 -20 -120q-55 -221 -227.5 -366.5t-397.5 -164.5v-291q0 -6 -2 -10h191q23 0 39 -16t16 -39t-16 -39t-39 -16h-482q-23 0 -39 16t-16 39t16 39t39 16h183v10v291q-225 19 -397.5 164.5t-227.5 366.5q-16 56 -23 122q-88 26 -159 97q-49 49 -82.5 120.5t-47.5 128.5 q-14 58 -20 132q-5 68 -5 94q0 18 3 64zM201 1368q0 -9 -1 -17q0 -52 6 -105q6 -62 35.5 -146.5t80.5 -136.5q34 -34 69 -52q-19 204 -31 457h-159zM467 1513q23 -675 65 -819v-2q49 -198 209.5 -323t364.5 -125t364 125t207 323l2 2q23 80 40.5 329t25.5 490h-1278z M1821 907q37 18 75 56q51 52 80.5 136.5t35.5 146.5q5 53 5 105v17h-168q-14 -312 -28 -461z" />
<glyph unicode="w" horiz-adv-x="2004" d="M88 641q0 186 72.5 355t195 291t292.5 194.5t356 72.5t355 -72.5t291 -194.5t194.5 -291t72.5 -355t-72.5 -355.5t-194.5 -292t-291 -195t-355 -72.5t-356 72.5t-292.5 195t-195 292t-72.5 355.5zM199 641q0 -218 108 -403.5t293.5 -293.5t403.5 -108q163 0 311.5 64 t256 171.5t171 256.5t63.5 313q0 217 -107.5 402t-292.5 293t-402 108q-218 0 -403.5 -108t-293.5 -293t-108 -402zM610 634q0 23 15 38l485 497q17 17 40 17t38 -15q17 -17 17 -39.5t-15 -37.5l-447 -459l447 -447q15 -17 15 -39.5t-15 -37.5q-17 -17 -41 -17q-22 0 -39 17 l-483 483q-17 17 -17 40z" />
<glyph unicode="x" horiz-adv-x="1439" d="M76 1354l284 278l279 -278h-223v-1630h-115v1630h-225zM801 2h225v1630h113v-1630h225l-279 -278z" />
<glyph unicode="y" horiz-adv-x="2004" d="M88 639q0 186 72.5 355t195 291t292.5 194.5t356 72.5t355 -72.5t291 -194.5t194.5 -291t72.5 -355t-72.5 -355.5t-194.5 -292t-291 -195t-355 -72.5t-356 72.5t-292.5 195t-195 292t-72.5 355.5zM199 639q0 -218 108 -403.5t293.5 -293.5t403.5 -108q163 0 311.5 64 t256 171.5t171 256.5t63.5 313q0 217 -107.5 402t-292.5 293t-402 108q-218 0 -403.5 -108t-293.5 -293t-108 -402zM456 466q0 23 17 38l498 485q16 17 37 17h1q22 -1 40 -17l483 -485q16 -13 16 -39t-16 -39q-15 -17 -38 -17t-40 17l-446 446l-457 -446q-17 -17 -40 -17 t-40 17q-15 17 -15 40z" />
<glyph unicode="z" horiz-adv-x="2172" d="M33 694h219q14 236 139 433t329.5 311t442.5 114q186 0 356 -72.5t292.5 -194.5t195 -291t72.5 -355t-72.5 -355.5t-195 -292t-292.5 -195t-356 -72.5q-209 0 -405 94l47 102q170 -86 358 -86q218 0 403.5 108t293.5 293.5t108 403.5q0 217 -108 402t-293.5 293 t-403.5 108q-156 0 -299.5 -58.5t-249.5 -158.5t-173.5 -238.5t-78.5 -292.5h220l-273 -270z" />
<glyph unicode="{" horiz-adv-x="2213" d="M88 -156v1033q0 51 35 86.5t86 35.5h1368q3 6 8 11q10 13 21 30t23.5 42t19 49t8.5 51.5t-10 48.5q-23 52 -110.5 82t-227.5 35q-432 15 -525 188q-20 38 -21.5 81t7.5 71.5t23 50.5q12 20 34.5 24t42.5 -8q19 -11 24 -33.5t-7 -42.5l-3 -6q-2 -6 -5 -14.5t-4.5 -20 t1 -25t9.5 -26.5q10 -19 33 -37t68.5 -38.5t129.5 -35t197 -18.5q357 -12 434 -182q54 -115 -37 -277h303q50 0 85.5 -35.5t35.5 -86.5v-1033q0 -51 -35.5 -85.5t-85.5 -34.5h-1804q-51 0 -86 34.5t-35 85.5zM199 -156q0 -10 10 -10h1804q10 0 10 10v1033q0 4 -3.5 8t-6.5 4 h-1804q-10 0 -10 -12v-1033zM487 305v53q0 18 12.5 30.5t30.5 12.5h52q18 0 30.5 -12.5t12.5 -30.5v-53q0 -18 -12.5 -30.5t-30.5 -12.5h-52q-18 0 -30.5 12.5t-12.5 30.5zM487 580v53q0 18 12.5 30.5t30.5 12.5h52q18 0 30.5 -12.5t12.5 -30.5v-53q0 -18 -12.5 -30.5 t-30.5 -12.5h-52q-18 0 -30.5 12.5t-12.5 30.5zM578 20q0 23 16 39.5t39 16.5h956q23 0 39.5 -16.5t16.5 -39.5t-16.5 -39t-39.5 -16h-956q-23 0 -39 16t-16 39zM627 442v54q0 18 12.5 30.5t30.5 12.5h51q18 0 30.5 -12.5t12.5 -30.5v-54q0 -18 -12.5 -30.5t-30.5 -12.5h-51 q-18 0 -30.5 12.5t-12.5 30.5zM764 305v53q0 17 13 30t30 13h53q17 0 30 -13t13 -30v-53q0 -17 -13 -30t-30 -13h-53q-17 0 -30 13t-13 30zM764 580v53q0 17 13 30t30 13h53q17 0 30 -13t13 -30v-53q0 -17 -13 -30t-30 -13h-53q-17 0 -30 13t-13 30zM903 442v54q0 17 13 30 t30 13h53q18 0 30.5 -12.5t12.5 -30.5v-54q0 -18 -12.5 -30.5t-30.5 -12.5h-53q-17 0 -30 13t-13 30zM1042 305v53q0 18 12.5 30.5t30.5 12.5h52q18 0 30.5 -12.5t12.5 -30.5v-53q0 -18 -12.5 -30.5t-30.5 -12.5h-52q-18 0 -30.5 12.5t-12.5 30.5zM1042 580v53 q0 18 12.5 30.5t30.5 12.5h52q18 0 30.5 -12.5t12.5 -30.5v-53q0 -18 -12.5 -30.5t-30.5 -12.5h-52q-18 0 -30.5 12.5t-12.5 30.5zM1182 442v54q0 17 13 30t30 13h53q17 0 30 -13t13 -30v-54q0 -17 -13 -30t-30 -13h-53q-17 0 -30 13t-13 30zM1319 305v53q0 18 12.5 30.5 t30.5 12.5h51q18 0 30.5 -12.5t12.5 -30.5v-53q0 -18 -12.5 -30.5t-30.5 -12.5h-51q-18 0 -30.5 12.5t-12.5 30.5zM1319 580v53q0 18 12.5 30.5t30.5 12.5h51q18 0 30.5 -12.5t12.5 -30.5v-53q0 -18 -12.5 -30.5t-30.5 -12.5h-51q-18 0 -30.5 12.5t-12.5 30.5zM1460 442v54 q0 18 12.5 30.5t30.5 12.5h51q19 0 32 -13t13 -30v-54q0 -17 -13 -30t-32 -13h-51q-18 0 -30.5 12.5t-12.5 30.5zM1595 305v53q0 17 13 30t30 13h54q17 0 30 -13t13 -30v-53q0 -17 -13 -30t-30 -13h-54q-17 0 -30 13t-13 30zM1595 580v53q0 17 13 30t30 13h54q17 0 30 -13 t13 -30v-53q0 -17 -13 -30t-30 -13h-54q-17 0 -30 13t-13 30z" />
<glyph unicode="|" horiz-adv-x="2179" d="M84 1372q-6 22 5.5 42t33.5 26l715 186h14h4q20 0 35.5 -12.5t19.5 -32.5q9 -55 61 -92t118 -37t117.5 37t60.5 92q3 20 18.5 32.5t36.5 12.5h2h14l715 -186q23 -6 35 -26t6 -42l-102 -393q-4 -18 -19.5 -29.5t-34.5 -11.5h-264v-883q0 -23 -17 -39t-40 -16h-1059 q-23 0 -39 16t-16 39v883h-264q-20 0 -36 11t-20 30zM205 1346l78 -297h276q23 0 39 -16.5t16 -39.5v-882h949v882q0 23 16.5 39.5t38.5 16.5h278l78 297l-614 159q-33 -74 -106.5 -120t-163.5 -46q-91 0 -164.5 46t-106.5 120z" />
<glyph unicode="}" horiz-adv-x="1748" d="M123 55v1340q0 23 16 39t39 16h1073q25 0 39 -14l328 -310q18 -15 18 -41v-1030q0 -23 -16 -39t-39 -16h-1403q-23 0 -39 16t-16 39zM233 111h1293v952l-295 276h-123v-436h-647v436h-228v-1228zM793 1026h186v313h-186v-313z" />
<glyph unicode="~" horiz-adv-x="1753" d="M39 645q0 23 16 39l955 954q17 17 39 17h589q23 0 39.5 -16.5t16.5 -39.5v-589q0 -22 -17 -39l-954 -955q-16 -16 -39 -16t-39 16l-590 590q-16 16 -16 39zM172 645l512 -510l899 897v512h-512zM1135 1280q0 78 53 131t131 53t131 -53q54 -54 54 -130t-54 -130 q-55 -55 -131 -55t-131 55q-53 53 -53 129zM1245 1280q0 -28 23 -51q20 -23 51 -23q30 0 53 23q22 22 22 52t-22 52q-21 21 -53 21q-33 0 -51 -21q-23 -23 -23 -53z" />
<glyph unicode="&#xa3;" horiz-adv-x="1890" d="M68 233q-16 122 75 216q85 91 222 110q126 16 229 -37q2 0 2 -2q1 0 22 -14l-67 1024q0 17 6 29q10 33 49 36l1116 78q27 0 43 -16q17 -17 17 -43l-10 -125l-52 -1086h-2q3 -8 0 -16v-8v-4q-11 -100 -95 -176t-204 -93q-18 -4 -57 -4q-124 0 -214.5 66t-103.5 168 q-16 118 76 213q85 91 221 110q127 16 230 -34l2 -2q1 -1 6.5 -5t16.5 -11.5t22 -16.5l31 645l-965 -51l57 -858v-13q3 -13 0 -26v-11v-2v-2q-9 -100 -93 -175.5t-206 -92.5q-36 -4 -57 -4q-123 0 -213.5 66t-103.5 167zM178 250q7 -60 66 -99.5t141 -39.5q15 0 43 4 q82 10 140 59t63 111v2v4q1 24 -10 48.5t-29.5 43t-30 28t-20.5 15.5q-59 27 -117 27q-15 0 -43 -4q-94 -12 -158 -76q-55 -58 -45 -123zM668 1489l12 -195l971 52l10 151l4 62zM1155 350q7 -60 66 -98.5t141 -38.5q29 0 43 2q82 12 140.5 61.5t62.5 110.5v4 q2 32 -20.5 65.5t-40 48t-29.5 21.5q-59 27 -119 27q-13 0 -41 -4q-97 -12 -158 -76q-55 -55 -45 -123z" />
<glyph unicode="&#xa9;" horiz-adv-x="2007" d="M82 546q0 44 31 81q27 31 61 65q180 177 381 283q148 74 291 102q86 13 158 13q69 0 155 -13q141 -27 291 -102q207 -109 381 -283q32 -29 61 -65q32 -37 32 -81t-32 -81q-63 -79 -194 -184q-261 -208 -514 -263q-88 -18 -180 -18q-94 0 -183 18q-251 55 -512 263 q-123 97 -196 184q-31 37 -31 81zM199 537q65 -79 178 -170q241 -191 469 -240q82 -16 155 -16h3q72 0 157 16q231 50 467 240q114 89 180 170q8 8 0 18q-16 20 -55 59q-169 169 -352 260q-141 72 -260 93q-70 12 -137 12q-71 0 -138 -12q-117 -20 -260 -93 q-180 -89 -354 -260q-8 -9 -26.5 -29t-26.5 -30q-10 -10 0 -18zM651 545q0 146 103.5 249t249.5 103q145 0 247.5 -103t102.5 -249q0 -145 -102.5 -247.5t-247.5 -102.5q-146 0 -249.5 102.5t-103.5 247.5zM762 545q0 -98 71 -169t171 -71q99 0 169 70.5t70 169.5 q0 100 -69.5 170.5t-169.5 70.5t-171 -70.5t-71 -170.5z" />
<glyph unicode="&#xab;" horiz-adv-x="2174" d="M39 532v555q0 23 16 39.5t39 16.5h537l459 375q28 21 59 6q31 -14 31 -49v-1328q0 -34 -31 -51q-8 -4 -25 -4q-19 0 -34 12l-459 373h-537q-23 0 -39 16t-16 39zM150 588h501q19 0 35 -13l383 -313v1096l-383 -314q-15 -12 -35 -12h-501v-444zM1243 582q-6 22 4 42t33 27 q51 17 83 61t32 99q0 54 -32 97.5t-83 60.5q-23 7 -33 27t-4 42q8 22 28.5 32.5t43.5 4.5q85 -29 137.5 -102t52.5 -162q0 -91 -52.5 -163.5t-137.5 -100.5q-12 -4 -19 -4q-17 0 -32 11t-21 28zM1323 315q-6 22 4.5 42.5t32.5 27.5q141 43 227 160.5t86 265.5 q0 147 -86 264.5t-227 161.5q-22 6 -32.5 26t-4.5 42q7 23 27.5 33.5t42.5 2.5q177 -55 284 -201t107 -329q0 -185 -107 -331t-284 -201q-6 -3 -17 -3q-18 0 -32.5 10.5t-20.5 28.5zM1407 39q-7 23 4 43.5t33 26.5q151 46 269 151.5t183.5 249t65.5 301.5q0 157 -65.5 300.5 t-183.5 248.5t-269 151q-22 6 -33 27t-4 43q6 22 26.5 32.5t43.5 4.5q126 -40 236.5 -117.5t189.5 -183.5q170 -225 170 -506q0 -284 -170 -506q-79 -107 -189.5 -185t-236.5 -116q-12 -4 -17 -4q-19 0 -34 11t-19 28z" />
<glyph unicode="&#xad;" horiz-adv-x="1495" d="M86 55v799q0 23 16 39t39 16h903v260q0 135 -83 221.5t-213 86.5q-132 0 -215.5 -86.5t-83.5 -221.5v-63q0 -23 -16.5 -39t-39.5 -16q-22 0 -38.5 16t-16.5 39v63q0 182 116 300t294 118q177 0 292 -118t115 -300v-260h199q22 0 38.5 -16t16.5 -39v-799q0 -23 -16.5 -39 t-38.5 -16h-1213q-23 0 -39 16t-16 39zM197 111h1101v688h-1101v-688zM610 565q0 50 42 86.5t96 36.5q52 0 93.5 -36.5t41.5 -86.5q0 -36 -22.5 -66t-57.5 -46v-230q0 -23 -16 -40t-39 -17t-39.5 17t-16.5 40v230q-35 16 -58.5 46.5t-23.5 65.5z" />
<glyph unicode="&#xae;" horiz-adv-x="2271" d="M113 121v1188v10q5 43 35.5 74t74.5 34v3h10h1803h10v-3q43 -3 74.5 -34t36.5 -74v-10v-1188q0 -33 -17 -60q-33 -61 -104 -61h-658v-166h125q23 0 39.5 -16t16.5 -39t-16.5 -39t-39.5 -16h-737q-23 0 -39 16t-16 39t16 39t39 16h125v166h-658q-71 0 -104 61 q-16 26 -16 60zM223 121q0 -10 10 -10h1803q10 0 10 10v1188v10h-1823v-10v-1188z" />
<glyph unicode="&#xbb;" horiz-adv-x="1157" d="M59 858v131q0 23 16.5 39t39.5 16t39 -16t16 -39v-131q0 -169 103.5 -295t258.5 -145h93q155 19 258.5 145t103.5 295v131q0 23 16 39t39 16t39.5 -16t16.5 -39v-131q0 -212 -132.5 -370t-330.5 -181h-2v-196h166q23 0 39 -16.5t16 -39.5t-16 -39t-39 -16h-443 q-23 0 -39 16t-16 39t16 39.5t39 16.5h166v196q-198 23 -330.5 181t-132.5 370zM262 856v549q0 146 92.5 249t223.5 103q132 0 224.5 -103t92.5 -249v-549q0 -146 -92.5 -249t-224.5 -103q-131 0 -223.5 103t-92.5 249zM373 856q0 -100 60 -171t145 -71q86 0 146 71t60 171 v219h-411v-219zM373 1186h411v219q0 100 -60 171t-146 71q-85 0 -145 -71t-60 -171v-219z" />
<glyph unicode="&#xc0;" horiz-adv-x="2209" d="M88 1086.5q-1 29.5 0 78.5q0 6 1 18.5t1 18.5q-3 129 100 232q115 117 351.5 182t539.5 65q194 0 374.5 -29.5t331.5 -86t242.5 -151t92.5 -214.5v-33q1 -49 -0.5 -80t-15 -74t-40.5 -71q-68 -68 -208 -53q-74 8 -125 26.5t-79 41t-43 58t-18 66.5t-2 78v17 q-1 27 -58 54.5t-172.5 47.5t-258.5 20q-162 0 -293 -27.5t-174 -70.5q-12 -12 -12 -24v-23q0 -46 -4 -76t-19 -64.5t-43 -56.5t-78.5 -40.5t-122.5 -26.5q-18 -2 -49 -2q-110 0 -164 57q-27 27 -40.5 70t-14.5 72.5zM199 1109q0 -12 1 -18t2 -16.5t3 -16.5t4.5 -14t6 -13.5 t7.5 -10.5q27 -31 121 -21q42 5 71 10.5t47.5 16.5t28.5 19.5t14.5 28.5t5.5 34t1 45v23q-3 53 43 102q42 43 119 72t166.5 40.5t148 15t113.5 3.5q31 0 65.5 -1t96.5 -6.5t116.5 -14t116 -26t105 -41.5t72 -61t28.5 -83v-19q-3 -82 12 -104q31 -42 156 -54q12 -2 35 -2 q59 0 82 23q28 30 24 145v35q-1 47 -25.5 90t-67 76t-87 56.5t-96.5 43.5q-263 105 -654 105q-277 0 -495 -57.5t-318 -157.5q-70 -70 -67 -154q0 -6 -1 -19.5t-1 -19.5v-17.5v-19v-17.5zM418 305q0 131 38 288.5t119 295.5q97 166 231.5 252t297.5 86h2q113 0 213.5 -43 t174 -115.5t132 -165t94.5 -196.5t55 -206.5t19 -197.5q-2 -142 -44.5 -222.5t-117.5 -80.5h-1052q-76 0 -119 81t-43 224zM528 305q0 -63 9.5 -109.5t21 -65.5t21.5 -19h1052q9 0 20 19t20 65.5t9 107.5q2 115 -33 258.5t-108 269.5q-32 54 -70 100t-91.5 90t-123.5 69.5 t-149 25.5h-2q-79 0 -149 -25t-123 -68.5t-91 -89t-69 -99.5q-73 -125 -108.5 -268.5t-35.5 -260.5zM774 537q0 137 97 234t235 97q137 0 234.5 -97.5t97.5 -233.5q0 -137 -98 -234.5t-234 -97.5q-138 0 -235 97.5t-97 234.5zM885 537q0 -91 64.5 -156.5t156.5 -65.5 q91 0 156 65.5t65 156.5q0 92 -65 156.5t-156 64.5q-92 0 -156.5 -64.5t-64.5 -156.5z" />
<glyph unicode="&#xc1;" horiz-adv-x="2256" d="M133 121v1278q0 51 35 87t86 36h1604q51 0 85.5 -36t34.5 -87v-299h-110v131l-770 -789q-16 -16 -41 -16h-2q-23 0 -39 16l-772 789v-1110q0 -10 10 -10h840v-111h-840q-51 0 -86 35.5t-35 85.5zM244 1389l813 -830l811 830v10q0 12 -10 12h-1604q-10 0 -10 -12v-10z M1155 70l82 290q3 14 14 25l494 492l121 122q25 25 61 25q41 0 72 -31l153 -153q27 -27 27 -66q-3 -33 -29 -59l-120 -123l-494 -492q-8 -11 -25 -14l-288 -84q-3 0 -8.5 -1t-8.5 -1q-23 0 -39 16q-23 22 -12 54zM1286 135l182 53l445 443l-131 129l-443 -443zM1860 838 l131 -129l67 69l-129 129z" />
<glyph unicode="&#xc3;" horiz-adv-x="2275" d="M135 121v1278q0 51 35 87t86 36h1604q51 0 85.5 -36t34.5 -87v-461h-110v293l-770 -789q-16 -16 -41 -16h-2q-23 0 -39 16l-772 789v-1110q0 -10 10 -10h588v-111h-588q-51 0 -86 35.5t-35 85.5zM246 1389l813 -830l811 830v10q0 12 -10 12h-1604q-10 0 -10 -12v-10z M965 150q4 8 16 26.5t43 58t70 79.5t101 88.5t131.5 89t165 76t198.5 53.5v194q0 37 34 51t60 -12l381 -381q16 -16 16 -39t-16 -39l-381 -379q-16 -16 -39 -16q-9 0 -21 4q-34 17 -34 51v189h-37q-96 0 -194.5 -17.5t-169 -41t-129.5 -49.5t-87 -41.5t-31 -18.5 q-15 -10 -34 -8t-33 14q-30 30 -10 68zM1223 281q215 73 430 73q65 0 96 -4q22 -1 36.5 -17t14.5 -38v-107l246 246l-246 248v-109q0 -22 -13.5 -37t-33.5 -18q-298 -40 -530 -237z" />
<glyph unicode="&#xc4;" horiz-adv-x="2093" d="M125 121v594q0 26 8 45q0 8 8 24l150 461l2 2q18 29 49 29h1409q19 0 32.5 -11t18.5 -28q152 -463 152 -469q14 -25 14 -53v-592v-2q0 -50 -36 -85.5t-87 -35.5h-1599q-51 0 -86 35.5t-35 85.5zM236 121q0 -10 10 -10l1599 2q13 0 13 10v592q0 10 -13 10h-403 q-34 -138 -140.5 -221.5t-254.5 -83.5t-256 84t-140 221h-405q-10 0 -10 -10v-594zM268 836h369h111q0 -58 18 -111q29 -90 104 -142.5t177 -52.5q100 0 174.5 52.5t105.5 142.5q16 56 16 111h111h369l-105 329h-1345z" />
<glyph unicode="&#xc7;" horiz-adv-x="2043" d="M65 564q0 23 17 38l899 899q17 17 39 17q20 0 37 -17l358 -360v188q0 23 15.5 39t37.5 16q23 0 39.5 -16t16.5 -39v-297l434 -436q15 -17 15 -40t-15 -38q-17 -14 -39 -14q-25 0 -39 14l-860 868l-862 -860q-15 -17 -38 -17t-38 17q-17 15 -17 38zM326 -223v782 q0 22 15.5 37.5t37.5 15.5q23 0 39 -15.5t16 -37.5v-727h389v307q0 22 16.5 38t39.5 16h282q22 0 37.5 -16t15.5 -38v-307h390v752q0 23 16 39t39 16q22 0 37.5 -16t15.5 -39v-807q0 -22 -15.5 -37.5t-37.5 -15.5h-498q-23 0 -39 15.5t-16 37.5v307h-174v-307 q0 -22 -15.5 -37.5t-37.5 -15.5h-500q-22 0 -37.5 15.5t-15.5 37.5z" />
<glyph unicode="&#xc8;" horiz-adv-x="2148" d="M41 702q0 161 108.5 275.5t260.5 114.5h22q34 114 126.5 187t209.5 73q17 0 49 -4q58 164 195 266t307 102q106 0 204 -43t173 -123q128 -135 153 -323q105 -65 166.5 -178t61.5 -244q0 -182 -109 -322q-111 -139 -280 -166q-16 -4 -66 -4h-180v111h180q33 0 45 2 q130 19 214.5 126.5t84.5 252.5q0 119 -61.5 214.5t-161.5 137.5q-3 187 -127 318t-297 131q-163 0 -283.5 -116.5t-140.5 -289.5q-56 41 -127 41q-100 0 -170 -76.5t-70 -183.5q0 -23 2 -33q-61 33 -120 33q-106 0 -182 -82t-76 -197q0 -105 63 -183t158 -93q10 -2 30 -2 h365v-111h-365q-33 0 -49 4q-135 21 -225 132q-88 111 -88 253zM713 160q0 8 4 20q17 35 51 35h188v37q0 96 -17.5 194t-41 168t-49.5 129t-41.5 86.5t-18.5 30.5q-22 37 7 70q30 30 67 10q198 -124 328 -340q106 -176 143 -385h195q37 0 51 -35q14 -36 -12 -59l-381 -381 q-16 -16 -39 -16t-39 16l-379 381q-16 16 -16 39zM901 104l246 -247l248 247h-109q-21 0 -36.5 13.5t-18.5 34.5q-40 297 -238 530q74 -218 74 -430q0 -65 -4 -98q-2 -22 -17 -36t-38 -14h-107z" />
<glyph unicode="&#xc9;" horiz-adv-x="2179" d="M78 113q0 161 108 275t260 114h23q35 111 121 182q-60 138 -60 205q0 177 125.5 301.5t302.5 124.5q109 0 203.5 -51t153.5 -138h41q107 0 205 -42t172 -121q128 -134 153 -324q105 -67 166.5 -180t61.5 -244q0 -182 -109 -319q-113 -142 -281 -166q-24 -6 -65 -6h-203 h-57h-959q-17 0 -49 4q-137 22 -225 133q-88 108 -88 252zM78 887q0 23 16 39t39 18h240q23 0 39 -16t16 -39t-16 -39t-39 -16l-240 -3q-23 0 -39 17t-16 39zM188 113q0 -104 64 -183t158 -94q5 0 14.5 -1t15.5 -1h959h57h203q33 0 45 4q129 19 214 125.5t85 251.5 q0 120 -61.5 216t-161.5 138q-5 186 -128 316.5t-296 130.5q-163 0 -284 -116.5t-140 -287.5q-58 39 -127 39q-100 0 -170 -76.5t-70 -183.5q0 -21 2 -31q-57 31 -121 31q-107 0 -182.5 -81t-75.5 -197zM319.5 1471.5q-0.5 21.5 16.5 39.5q17 15 40 15t38 -15l170 -170 q15 -15 15 -37.5t-15 -39.5q-17 -17 -39 -17t-39 17l-170 168q-16 18 -16.5 39.5zM643 889q0 -85 37 -152q61 25 125 25q17 0 49 -4q43 123 132.5 213.5t207.5 130.5q-96 102 -236 102q-130 0 -222.5 -92t-92.5 -223zM903 1475v239q0 23 16 39t39 16t39.5 -16t16.5 -39v-239 q0 -23 -16.5 -39.5t-39.5 -16.5t-39 16.5t-16 39.5zM1318 1303.5q0 22.5 17 37.5l168 170q17 15 40 15t38 -15q17 -17 17 -39.5t-15 -37.5l-170 -170q-17 -17 -39 -17t-39 17t-17 39.5z" />
<glyph unicode="&#xcb;" horiz-adv-x="1437" d="M68 375q0 312 604 1351q14 27 47 27q30 0 47 -27q604 -1039 604 -1351q0 -177 -87.5 -327t-237.5 -237t-326 -87t-326 87t-237.5 237t-87.5 327zM178 375q0 -147 72.5 -271.5t197 -197t271.5 -72.5q146 0 270.5 72.5t197.5 197t73 271.5q0 82 -56.5 238.5t-146 339 t-173.5 339t-165 295.5q-81 -139 -165 -295.5t-173.5 -339t-146 -339t-56.5 -238.5zM789 27q6 21 26 32q192 112 219 267q11 52 0 105.5t-26.5 95t-37.5 77.5t-34 52t-16 20q-15 17 -13 40.5t19 37.5q17 15 40 13.5t38 -19.5q3 -3 12 -15t25.5 -36t32.5 -54t33 -69t27 -81 t14 -90t-5 -96q-35 -208 -273 -344q-15 -6 -28 -6q-31 0 -47 29q-12 20 -6 41z" />
<glyph unicode="&#xcc;" horiz-adv-x="1734" d="M64 226q6 22 26 34l197 115l-172 102q-20 10 -25.5 33t6.5 43q10 20 33 25t43 -7l225 -133l361 209l-361 207l-225 -133q-13 -8 -29 -8q-31 0 -47 26q-12 20 -6.5 43t25.5 33l172 103l-197 114q-20 12 -26 34t6 42q10 20 32.5 26t42.5 -6l195 -112l2 194q0 23 16.5 39.5 t38.5 16.5h2q23 0 39.5 -17t14.5 -39l-2 -258l362 -209v412l-229 129q-20 11 -26.5 33.5t5.5 42.5q11 20 32.5 26t41.5 -6l176 -98v229q0 23 16 39.5t39 16.5t39.5 -16.5t16.5 -39.5v-227l170 96q20 12 41.5 6t33.5 -26q11 -20 4.5 -43t-26.5 -33l-223 -127v-416l354 205 l-2 264q0 22 16 39t39 17t39 -16.5t16 -39.5l3 -200l200 116q20 11 43 5.5t33 -25.5q12 -20 6 -43t-26 -33l-199 -115l168 -100q20 -10 25.5 -33t-5.5 -43q-20 -26 -49 -26q-15 0 -26 8l-224 131l-356 -205l356 -207l224 131q19 12 41 7t34 -25q11 -20 5.5 -43t-25.5 -33 l-168 -100l199 -115q20 -10 26 -33t-6 -43q-16 -26 -47 -26q-17 0 -29 6l-200 117l-3 -201q0 -23 -16 -39t-39 -16t-39 17t-16 40l2 262l-354 205v-416l223 -125q20 -12 26.5 -34t-4.5 -42q-16 -28 -49 -28q-14 0 -26 6l-170 96v-229q0 -23 -16.5 -39t-39.5 -16t-39 16 t-16 39v233l-176 -100q-12 -6 -27 -6q-31 0 -47 28q-12 20 -5.5 42t26.5 34l229 129v410l-362 -207l2 -258q1 -23 -15 -40t-39 -17h-2q-22 0 -38.5 16t-16.5 39l-2 194l-195 -112q-20 -8 -28 -8q-31 0 -47 28q-12 20 -6 42z" />
<glyph unicode="&#xcd;" horiz-adv-x="1826" d="M33 881q0 23 16 39t39 16h240q23 0 39 -16t16 -39t-16 -39.5t-39 -16.5h-240q-23 0 -39 16.5t-16 39.5zM274 1465q0 23 17 38q15 17 39 17t39 -17l170 -168q15 -17 15 -40t-15 -38q-13 -16 -39 -16t-39 16l-170 168q-17 17 -17 40zM274.5 297q-0.5 23 16.5 39l168 170 q17 15 40 15t40 -15q15 -17 15 -40t-15 -38l-170 -170q-16 -16 -39 -16t-39 16t-16.5 39zM485 881q0 177 125.5 302.5t302.5 125.5t302.5 -125.5t125.5 -302.5t-125.5 -302.5t-302.5 -125.5t-302.5 125.5t-125.5 302.5zM596 881q0 -116 75 -203.5t187 -108.5v625 q-112 -20 -187 -108.5t-75 -204.5zM858 55v240q0 23 16 39t39 16t39.5 -16t16.5 -39v-240q0 -23 -16.5 -39t-39.5 -16t-39 16t-16 39zM858 1468v238q0 23 16 39t39 16t39.5 -16t16.5 -39v-238q0 -23 -16.5 -39t-39.5 -16t-39 16t-16 39zM969 569q113 20 187.5 108t74.5 204 t-74.5 204.5t-187.5 108.5v-625zM1273 466q0 23 17 40q15 15 38 15t40 -15l168 -170q17 -15 17 -38t-15 -40q-19 -16 -41 -16q-20 0 -39 16l-168 168q-17 17 -17 40zM1273 1295q0 23 17 40l168 168q17 17 40 17t38 -17q17 -15 17 -38t-17 -40l-168 -168q-13 -16 -39 -16 t-39 16q-17 15 -17 38zM1446 881q0 23 16 39t39 16h238q23 0 39 -16t16 -39t-16 -39.5t-39 -16.5h-238q-23 0 -39 16.5t-16 39.5z" />
<glyph unicode="&#xcf;" horiz-adv-x="1443" d="M31 487q-14 36 12 62l985 971q13 13 33 15t35 -9q36 -22 22 -66l-241 -655h485q38 0 51 -33q13 -36 -12 -61l-983 -971q-19 -16 -39 -16t-31 8q-36 22 -22 65l241 656h-485q-37 0 -51 34zM217 563h430q29 0 45 -22q17 -23 6 -52l-182 -497l711 702h-430q-29 0 -45 25 q-17 23 -7 49l183 498z" />
<glyph unicode="&#xd2;" horiz-adv-x="2170" d="M74 74l573 1552q6 15 19 25.5t28 11.5q38 0 54 -29l520 -903l227 262q19 22 47 19q29 -3 43 -27l524 -901q17 -28 0 -55q-16 -29 -49 -29h-1933q-29 0 -45 23q-15 21 -8 51zM203 111h1761l-436 751l-228 -262q-18 -21 -47 -18q-27 3 -43 26l-499 871z" />
<glyph unicode="&#xd3;" horiz-adv-x="2117" d="M37 379l270 270l279 -270h-219h-9q1 -141 87.5 -262.5t234 -196t324.5 -84.5v1411h-115q-23 0 -39 16.5t-16 39.5t16 39t39 16h108q-65 19 -107 73.5t-42 124.5q0 86 60.5 147.5t146.5 61.5t147.5 -61.5t61.5 -147.5q0 -70 -42.5 -124.5t-109.5 -73.5h119q23 0 39 -16 t16 -39t-16 -39.5t-39 -16.5h-117v-1411q176 12 322 87t230.5 195.5t84.5 260.5h-217l270 270l279 -270h-219h-2q0 -178 -108.5 -329t-294.5 -238.5t-404 -87.5t-403.5 87.5t-294 238.5t-109.5 329h-211zM958 1556q0 -40 28.5 -68t68.5 -28t69 28t29 68t-29 69.5t-69 29.5 t-68.5 -29.5t-28.5 -69.5z" />
<glyph unicode="&#xd5;" horiz-adv-x="2154" d="M53 186q17 31 49 31h879v131v1368q0 19 11 34t28 19q42 10 63 -24l887 -1366q16 -28 0 -57q-13 -29 -47 -29h-831v-76h952q35 0 49 -31q16 -30 -4 -57l-277 -383q-19 -22 -45 -22h-1386q-29 0 -45 22l-279 383q-20 27 -4 57zM211 104l197 -270h1331l196 270h-1724z M297 322q-16 26 2 55l524 846q21 34 64 24q17 -5 29 -19.5t12 -33.5v-846q0 -23 -17 -39t-41 -16h-524q-33 0 -49 29zM444 403h371v590zM459 -31q0 23 16 39.5t39 16.5t39 -16.5t16 -39.5t-16 -39t-39 -16t-39 16t-16 39zM596 -31q0 23 16 39.5t39 16.5t39.5 -16.5 t16.5 -39.5t-16.5 -39t-39.5 -16t-39 16t-16 39zM733 -31q0 23 16 39.5t39 16.5t39.5 -16.5t16.5 -39.5t-16.5 -39t-39.5 -16t-39 16t-16 39zM1092 403h731l-731 1121v-1035v-2v-84z" />
<glyph unicode="&#xd6;" horiz-adv-x="1587" d="M115 -156v1483q0 51 35 86t86 35h139v4q0 23 16 39t39 16h76q2 27 14 66q30 87 104.5 141.5t168.5 54.5q93 0 167.5 -54.5t104.5 -141.5q12 -39 14 -66h76q23 0 39 -16t16 -39v-4h140q50 0 85 -35t35 -86v-778v-109v-596q0 -51 -35 -85.5t-85 -34.5h-596h-109h-409 q-51 0 -86 34.5t-35 85.5zM225 -156q0 -10 11 -10h409h219h486q10 0 10 10v486v219v778q0 10 -10 10h-140v-233q0 -23 -16 -39t-39 -16h-725q-23 0 -39 16t-16 39v233h-139q-11 0 -11 -10v-1483zM485 1159h615v178v45v15h-131h-51h-248h-54h-131v-15v-45v-178zM618 1507h25 h43h217h39h25q-6 38 -25 66q-24 39 -63.5 62.5t-85.5 23.5t-86 -23.5t-64 -62.5q-19 -29 -25 -66z" />
<glyph unicode="&#xd9;" horiz-adv-x="1916" d="M33 729q0 45 33 78l243 246q37 32 80 32q41 0 78 -32l293 -295l678 676q28 32 78 32q45 0 77 -32l246 -244q31 -36 31 -80q0 -47 -31 -78l-999 -999q-33 -33 -80 -33q-45 0 -78 33l-616 618q-33 33 -33 78zM143 729l617 -618l999 999l-243 246l-756 -754l-371 371z" />
<glyph unicode="&#xda;" horiz-adv-x="1867" d="M53 604q0 23 16.5 39t39.5 16h239q23 0 39 -16t16 -39t-16 -39t-39 -16h-239q-23 0 -39.5 16t-16.5 39zM121 266q-9 22 0 43.5t29 30.5l221 92q22 8 43 -1t28 -30q9 -22 1 -43t-29 -28l-221 -92q-15 -5 -21 -5q-38 0 -51 33zM121 899q-9 21 0 43q7 21 28.5 29.5 t43.5 -0.5l221 -90q21 -9 29.5 -30t0.5 -42q-15 -35 -53 -35q-4 0 -20 4l-221 92q-20 8 -29 29zM294 20.5q0 23.5 17 38.5l168 170q17 15 40 15t40 -15q15 -17 15 -39.5t-15 -37.5l-170 -170q-17 -17 -39 -17t-39 17q-17 15 -17 38.5zM294 1189q0 23 17 38q15 17 39 17 t39 -17l170 -168q15 -17 15 -40t-15 -38q-19 -16 -39 -16q-23 0 -39 16l-170 168q-17 17 -17 40zM566.5 1389q8.5 21 29.5 30q22 8 43.5 -0.5t30.5 -29.5l92 -222q8 -21 -1 -41.5t-30 -29.5q-12 -4 -20 -4q-40 0 -52 34l-92 220q-9 22 -0.5 43zM567 -137l90 221 q9 21 30.5 30t43.5 1q22 -9 30 -30.5t-1 -43.5l-90 -221q-13 -33 -52 -33q-14 0 -20 4q-22 7 -31 28.5t0 43.5zM879 18q0 23 16 39.5t39 16.5t39 -16.5t16 -39.5v-239q0 -23 -16 -39t-39 -16t-39 16t-16 39v239zM879 1192v238q0 23 16 39t39 16t39 -16t16 -39v-238 q0 -23 -16 -39t-39 -16t-39 16t-16 39zM1108 41q-9 22 0 43t29 29q22 9 43 1t30 -30l93 -221q8 -22 -1 -42.5t-30 -29.5q-6 -4 -21 -4q-38 0 -51 33zM1108 1125q-9 20 0 42l90 222q9 21 30.5 29.5t43.5 0.5q21 -9 29 -30t-1 -43l-90 -220q-12 -34 -51 -34q-8 0 -20 4 q-22 9 -31 29zM1294 189.5q0 22.5 17 39.5q15 15 38 15t40 -15l167 -170q17 -15 17 -37.5t-17 -39.5t-38 -17q-22 0 -39 17l-168 168q-17 17 -17 39.5zM1294 1019q0 23 17 40l168 168q17 17 39.5 17t37.5 -15q17 -17 17 -40t-17 -40l-167 -168q-13 -16 -39 -16t-39 16 q-17 15 -17 38zM1425 358.5q-9 20.5 0 42.5q9 21 29.5 30t42.5 1l221 -92q21 -9 30 -30t1 -42q-15 -35 -51 -35q-3 0 -23 5l-219 92q-22 8 -31 28.5zM1425 807q-9 22 0 43.5t31 30.5l219 92q22 8 43.5 -1t30.5 -30q8 -22 -1 -43.5t-30 -28.5l-221 -92q-6 -4 -20 -4 q-39 0 -52 33zM1466 604q0 23 16.5 39t39.5 16h237q23 0 39.5 -16t16.5 -39t-16.5 -39t-39.5 -16h-237q-23 0 -39.5 16t-16.5 39z" />
<glyph unicode="&#xdc;" horiz-adv-x="1277" d="M12 442v555q0 23 16.5 39.5t39.5 16.5h536l459 372q26 22 59 9q31 -17 31 -52v-1327q0 -35 -31 -49q-12 -6 -24 -6q-20 0 -35 12l-459 375h-536q-23 0 -39.5 16t-16.5 39zM123 498h502q18 0 34 -13l383 -313v1096l-383 -314q-15 -12 -34 -12h-502v-444z" />
<glyph unicode="&#xe0;" horiz-adv-x="2111" d="M133 121v1278q0 51 35 87t86 36h1604q51 0 85.5 -36t34.5 -87v-1278q0 -50 -34.5 -85.5t-85.5 -35.5h-1604q-51 0 -86 35.5t-35 85.5zM244 121q0 -10 10 -10h1604q10 0 10 10v1110l-770 -789q-16 -16 -41 -16h-2q-23 0 -39 16l-772 789v-1110zM244 1389l813 -830l811 830 v10q0 12 -10 12h-1604q-10 0 -10 -12v-10z" />
<glyph unicode="&#xe1;" horiz-adv-x="2293" d="M135 121v1280q0 49 35.5 85t85.5 36h1604q51 0 86.5 -35.5t35.5 -85.5v-473h-112v303v143l-770 -788q-17 -17 -41 -17h-2q-22 0 -39 17l-772 788v-143v-1110q0 -10 10 -10h1477v-111h-1477q-50 0 -85.5 36t-35.5 85zM365 1411l694 -709l692 709h-1386zM1303 562 q0 132 94 224q94 94 225 94t223 -94q19 -16 31 -34q58 -77 62 -175.5t-46 -179.5l95 -96l32 -31l111 -110l31 -33q18 -18 18.5 -37t-7.5 -31t-24 -28q-14 -14 -25 -21.5t-28 -8.5t-33 13q-4 4 -8 6l-72 72l-18 19l-88 90l-90 90q-91 -56 -201.5 -44t-187.5 91 q-94 92 -94 224zM1413 565q0 -87 60 -147q61 -62 147 -62t147 62q61 60 61 147t-61 148q-61 60 -147 60t-147 -60q-60 -61 -60 -148z" />
<glyph unicode="&#xe3;" horiz-adv-x="2279" d="M96 434q0 22 17 39l381 381q23 26 59 12q35 -14 35 -51v-194q101 -18 194.5 -52.5t161.5 -73t129.5 -86t100.5 -86.5t72 -79.5t45.5 -59.5t20.5 -32l1 -2q20 -38 -10 -68q-14 -12 -33.5 -14t-34.5 8l-2 1q-156 93 -355 138q-128 29 -253 29h-37v-189q0 -33 -35 -51 q-12 -4 -21 -4q-22 0 -38 16l-381 379q-17 17 -17 39zM229 434l248 -246v107q0 22 14.5 37.5t34.5 17.5q33 4 99 4q215 0 430 -73q-232 197 -531 237q-20 3 -33.5 18t-13.5 37v109zM295 938v461q0 51 35.5 87t85.5 36h1605q50 0 85.5 -36t35.5 -87v-1278q0 -49 -36 -85 t-85 -36h-587v111h587q4 0 7.5 3.5t3.5 6.5v1110l-772 -789q-16 -16 -39 -16h-4q-23 0 -39 16l-772 789v-293h-111zM406 1389l813 -830l813 830v10q0 12 -11 12h-1605q-3 0 -6.5 -4t-3.5 -8v-10z" />
<glyph unicode="&#xe4;" horiz-adv-x="1724" d="M113 -221q0 23 16 39t39 16h121v543v891v94q-65 19 -108.5 75t-43.5 126q0 86 60.5 146t146.5 60q87 0 148 -60t61 -146q0 -70 -43.5 -126t-110.5 -75v-51l654 -162q19 -5 31 -20t12 -35v-123l585 -156q38 -10 41 -49q3 -38 -30 -55l-629 -303q-11 -7 -23 -7q-15 0 -30 9 q-25 16 -25 47v90l-586 -209v-504h123q23 0 39.5 -16t16.5 -39t-16.5 -39t-39.5 -16h-354q-23 0 -39 16t-16 39zM248 1563q0 -40 28 -68.5t68 -28.5t69 28.5t29 68.5t-29 68t-69 28t-68 -28t-28 -68zM399 455l586 209v387l-586 145v-741zM1096 545l413 200l-413 111v-311z " />
<glyph unicode="&#xe7;" horiz-adv-x="2142" d="M45 575q0 161 108.5 275.5t260.5 114.5h22q34 115 126.5 187.5t209.5 72.5q33 0 49 -4q57 165 195 267.5t307 102.5q106 0 204 -43t173 -123q128 -135 153 -323q105 -67 166.5 -179.5t61.5 -244.5q0 -183 -109 -320q-113 -141 -280 -165q-28 -7 -66 -7h-180v111h180 q33 0 45 4q129 19 214 125.5t85 251.5q0 120 -61.5 216t-161.5 138q-3 186 -127 316.5t-297 130.5q-163 0 -283.5 -116t-140.5 -288q-58 39 -127 39q-100 0 -170 -76.5t-70 -183.5q0 -16 3 -31q-57 31 -121 31q-107 0 -182.5 -81.5t-75.5 -197.5q0 -104 63.5 -182t157.5 -92 q20 -4 31 -4h364v-111h-364q-18 0 -50 4q-136 22 -225 134q-88 108 -88 251zM717 512q0 23 16 39l379 381q16 16 39 16t39 -16l381 -381q26 -23 12 -59q-14 -35 -51 -35h-195q-18 -101 -52.5 -194.5t-73 -161.5t-86 -129.5t-86.5 -100.5t-79.5 -72t-59.5 -45.5t-32 -20.5 l-2 -1q-37 -20 -67 10q-12 13 -13.5 33t7.5 37q3 3 18.5 30.5t41.5 86.5t49.5 129t41 168t17.5 194v37h-189q-34 0 -51 35q-4 12 -4 20zM905 567h109q22 0 37 -13.5t16 -35.5q4 -33 4 -98q0 -212 -74 -430q197 228 238 530q3 20 18 33.5t37 13.5h109l-248 248z" />
<glyph unicode="&#xe8;" horiz-adv-x="2197" d="M63 389q0 161 108.5 276t260.5 115q17 0 23 -2q34 115 126.5 187.5t209.5 72.5q33 0 49 -2q58 164 195 266.5t306 102.5q106 0 204 -43t173 -123q130 -136 154 -324q105 -67 166 -178.5t61 -242.5q0 -186 -108 -322q-113 -142 -281 -166q-24 -6 -65 -6h-203h-58h-958 q-17 0 -49 4q-137 22 -225 133q-89 109 -89 252zM174 389q0 -104 63.5 -182t157.5 -92q20 -4 31 -4h958h58h203q21 0 45 4q129 19 214 126t85 253q0 118 -62 214t-162 138q-3 186 -127 317t-297 131q-163 0 -283 -116.5t-140 -288.5q-58 39 -127 39q-100 0 -170 -75.5 t-70 -184.5q0 -21 2 -31q-57 31 -121 31q-107 0 -182.5 -81t-75.5 -198z" />
<glyph unicode="&#xe9;" horiz-adv-x="2156" d="M47 756q0 160 108.5 274.5t260.5 114.5q16 0 22 -2q34 115 126.5 188.5t209.5 73.5q17 0 49 -4q58 164 195 266t307 102q106 0 204 -43t173 -122q128 -134 153 -324q105 -65 166.5 -178t61.5 -244q0 -181 -109 -321q-114 -142 -280 -166q-24 -6 -66 -6h-143v112h143 q33 0 45 2q129 19 214 126.5t85 252.5q0 119 -61.5 214.5t-161.5 137.5q-3 186 -127 317.5t-297 131.5q-163 0 -283.5 -117t-140.5 -289q-58 39 -127 39q-100 0 -169.5 -75.5t-69.5 -182.5q0 -23 2 -33q-61 33 -121 33q-107 0 -182.5 -81t-75.5 -197q0 -105 63.5 -184 t157.5 -93q10 -2 31 -2h327v-112h-327q-26 0 -50 6q-139 22 -225 131q-88 111 -88 254zM827 195v628q0 23 16.5 39.5t39.5 16.5t39 -16.5t16 -39.5v-628q0 -23 -16 -39.5t-39 -16.5t-39.5 16.5t-16.5 39.5zM1055 51v629q0 23 16 39t39 16t39 -16t16 -39v-629q0 -23 -16 -39 t-39 -16t-39 16t-16 39zM1282 195v628q0 23 16 39.5t39 16.5t39.5 -16.5t16.5 -39.5v-628q0 -23 -16.5 -39.5t-39.5 -16.5t-39 16.5t-16 39.5z" />
<glyph unicode="&#xeb;" horiz-adv-x="1918" d="M51 889q0 155 73 297t196 244.5t293 163.5t356 61t356 -61t293 -163.5t195.5 -244.5t72.5 -297q0 -23 -16 -39t-39 -16h-4q-18 0 -33 12q-99 74 -186 74q-85 0 -174 -74q-12 -12 -35 -12h-2q-20 0 -35 12q-102 74 -174 74h-2q-89 3 -174 -60v-825v-86v-12 q0 -88 -61.5 -150.5t-147.5 -62.5t-146.5 62.5t-60.5 150.5q0 23 16 39t39 16t39.5 -16t16.5 -39q0 -42 28.5 -72.5t67.5 -30.5q41 0 69.5 30.5t28.5 72.5v12v86v827q-44 33 -70.5 45.5t-70.5 12.5q-98 0 -182 -72q-14 -14 -37 -14h-4q-19 0 -37 14q-78 72 -172 72 q-92 0 -176 -72q-11 -14 -35 -14h-11q-23 0 -39 16t-16 39zM172 993q73 37 156 37q116 0 213 -72q104 72 219 72q64 0 106.5 -18t91.5 -54q108 75 230 72q99 0 209 -74q102 74 211 74q79 0 157 -37q-30 154 -142.5 280t-284.5 198.5t-369 72.5t-369.5 -72.5t-285 -198.5 t-142.5 -280z" />
<glyph unicode="&#xec;" horiz-adv-x="1826" d="M33 883q0 23 16 39t39 16h240q23 0 39 -16t16 -39t-16 -39.5t-39 -16.5h-240q-23 0 -39 16.5t-16 39.5zM274 298q0 23 17 40l168 168q17 17 40 17t40 -17q15 -15 15 -38t-15 -40l-170 -170q-16 -16 -39 -16t-39 16q-17 17 -17 40zM274 1465q0 23 17 40q15 15 39 15 t39 -15l170 -170q15 -15 15 -38t-15 -40q-19 -16 -39 -16q-23 0 -39 16l-170 170q-17 15 -17 38zM485 883q0 177 125.5 302.5t302.5 125.5t302.5 -125.5t125.5 -302.5t-125.5 -302.5t-302.5 -125.5t-302.5 125.5t-125.5 302.5zM596 883q0 -132 93 -225t224 -93q132 0 225 93 t93 225q0 131 -93 224t-225 93q-131 0 -224 -93t-93 -224zM858 55v240q0 23 16 39t39 16t39.5 -16t16.5 -39v-238q0 -23 -16.5 -40t-39.5 -17t-39 16.5t-16 38.5zM858 1468v240q0 23 16 39t39 16t39.5 -16t16.5 -39v-240q0 -23 -16.5 -39t-39.5 -16t-39 16t-16 39zM1273 467 q0 24 17 39q15 17 38 17t40 -17l168 -168q17 -17 17 -40t-17 -38q-13 -16 -39 -16t-39 16l-168 168q-17 15 -17 39zM1273 1297q0 23 17 38l168 170q17 17 40 17t38 -17q17 -17 17 -40t-17 -38l-168 -170q-16 -16 -39 -16t-39 16q-17 17 -17 40zM1446 883q0 23 16 39t39 16 h238q23 0 39 -16t16 -39t-16 -39.5t-39 -16.5h-238q-23 0 -39 16.5t-16 39.5z" />
<glyph unicode="&#xed;" horiz-adv-x="1800" d="M41 414q17 31 55 28q33 -6 99 -6q206 0 384 102.5t279 280.5q117 201 102 432.5t-157 415.5q-22 29 -4 62q19 31 55 28q173 -24 324 -110q154 -89 260 -231.5t149 -304t22 -337.5t-110 -330q-119 -204 -323.5 -324t-436.5 -120q-223 0 -438 123q-143 81 -256 227 q-24 31 -4 64zM219 326q55 -53 137 -101q179 -104 383 -104t382.5 103.5t281.5 281.5q62 108 87 228t10.5 237t-61 225t-128 200t-189.5 154q-69 41 -155 70q108 -198 105.5 -428t-118.5 -428q-114 -198 -310.5 -315t-424.5 -123z" />
<glyph unicode="&#xef;" horiz-adv-x="1318" d="M53 242l502 1454q10 34 39.5 55t64.5 21t65 -21t40 -55l502 -1454q19 -52 -15 -101q-31 -45 -90 -45h-446v-317q0 -23 -16.5 -39t-39.5 -16t-39 16t-16 39v317h-446q-59 0 -90 45q-34 49 -15 101zM158 207h446v821q0 23 16 39t39 16t39.5 -16t16.5 -39v-821h446 l-502 1454z" />
<glyph unicode="&#xf2;" d="M90 639q0 186 72.5 355t195 291t292.5 194.5t356 72.5t355 -72.5t291 -194.5t194.5 -291t72.5 -355t-72.5 -355.5t-194.5 -292t-291 -195t-355 -72.5t-356 72.5t-292.5 195t-195 292t-72.5 355.5zM201 639q0 -184 75 -340l244 127q-45 102 -45 213q0 104 43 209l-244 127 q-73 -158 -73 -336zM586 639q0 -173 123.5 -296.5t296.5 -123.5q172 0 294.5 123.5t122.5 296.5q0 172 -122.5 295t-294.5 123q-173 0 -296.5 -123t-123.5 -295zM659 1364l127 -244q103 47 220 47q109 0 215 -45l127 244q-161 76 -342 76t-347 -78zM662 -88q166 -78 344 -78 q182 0 340 76l-127 244q-102 -45 -213 -45q-118 0 -218 47zM1489 424l244 -127q75 159 75 342q0 176 -73 338l-244 -129q43 -100 43 -209q0 -113 -45 -215z" />
<glyph unicode="&#xf3;" horiz-adv-x="2217" d="M88 55q0 23 16 39.5t39 16.5q160 0 276.5 90t153.5 241v4q0 1 1 3.5t1 3.5q3 2 3 4q2 2 2 4l4 4l4 4l4 4q2 2 4 2l4 4l4 2q1 0 3 1t3 1h2q2 0 2 2h7h6h4h6l2 -2h4q2 -2 4 -2q1 0 3 -1t3 -1l4 -4q1 0 2.5 -1t2.5 -1l4 -4l4 -4q2 -2 2 -4l4 -4q0 -4 2 -4q0 -5 2 -7v-4 q37 -151 153.5 -241t276.5 -90q158 0 274.5 90t153.5 241q0 2 2 4q0 5 2 7q0 2 2 4q0 1 1 2t1 2l4 4l2 4l4 4l5 2q1 1 3 2t3 2q2 2 4 2q1 0 3 1t3 1h2h2q2 2 6 2h4h6q5 0 7 -2h2h2q1 0 3 -1t3 -1t2 -1t2 -1l4 -4q1 0 3 -1t3 -1q0 -1 1 -2t1 -2q4 0 4 -4l4 -4q0 -1 1 -2t1 -2 l2 -4q3 -3 3 -7q0 -1 1 -2t1 -2q35 -150 152 -240.5t276 -90.5q23 0 39 -16.5t16 -39.5t-16 -39t-39 -16q-158 0 -285.5 73t-198.5 203q-69 -129 -196 -202.5t-285 -73.5h-2q-157 0 -283.5 73.5t-197.5 202.5q-71 -129 -198.5 -202.5t-285.5 -73.5q-23 0 -39 16t-16 39z M88 625q0 23 16 39t39 16q160 0 276.5 90t153.5 242v2q0 1 1 3t1 3t1.5 2t1.5 2l2 4l4 4l4 4q0 4 4 4l4 4q1 0 2 1.5t2 1.5l4 2q2 2 6 2l2 2h2h7h6h4h6h2q1 0 2 -1t2 -1q2 0 4 -2q1 0 3 -1t3 -1q2 -3 4 -3q1 -1 2.5 -2t2.5 -2l4 -4l4 -4q2 -2 2 -4l4 -4q0 -2 2 -4q0 -4 2 -6 v-2q37 -152 153.5 -242t276.5 -90q159 0 275 90t153 242q0 2 2 2q0 4 2 6q0 2 2 4l2 4l4 4l2 4l4 4q1 1 3 2q1 0 1.5 0.5t0.5 1.5q1 0 3 1.5t3 1.5q2 2 4 2q2 2 6 2l2 2h2h6h4h6h7h2l2 -2q4 0 6 -2q1 0 2 -1t2 -1l4 -3q1 -1 3 -2t3 -2q2 -2 2 -4q4 0 4 -4l4 -4q2 -2 2 -4 q0 -1 1 -2t1 -2q3 -3 3 -6l2 -2q35 -152 152 -242t276 -90q23 0 39 -16t16 -39t-16 -39.5t-39 -16.5q-157 0 -285 73.5t-199 203.5q-69 -130 -196.5 -203.5t-284.5 -73.5h-2q-157 0 -283.5 73.5t-197.5 203.5q-71 -130 -198 -203.5t-286 -73.5q-23 0 -39 16.5t-16 39.5z" />
<glyph unicode="&#xf5;" horiz-adv-x="1787" d="M61.5 1159.5q-22.5 131.5 32.5 257.5q13 27 41 33q30 7 49 -16l242 -242l141 141l-241 242q-23 20 -17 49q6 28 33 41q126 55 257.5 32.5t223.5 -114.5t115.5 -220.5t-27.5 -252.5q765 -711 779 -723q64 -61 67 -145q0 -86 -59 -148l-33 -33q-62 -59 -147 -59 q-84 3 -146 68q-5 6 -361 389.5t-362 390.5q-123 -53 -252 -29.5t-221 115.5t-114.5 223.5zM172 1290q-14 -78 7.5 -150.5t76.5 -125.5q74 -74 179.5 -86.5t203.5 39.5q18 9 37 5t31 -18l747 -811q27 -27 66 -30q40 0 65 28l33 33q29 26 29 66q-3 37 -31 65l-811 752 q-29 33 -10 65q51 99 36.5 204t-86.5 177q-53 55 -125.5 76.5t-150.5 7.5l215 -215q17 -15 17 -39t-17 -39l-219 -219q-15 -15 -39 -15t-39 15z" />
<glyph unicode="&#xf6;" horiz-adv-x="2170" d="M66 -201l555 1356q14 35 51 35h205q-50 69 -50 149q0 106 75 181t181 75t181 -75t75 -181q0 -84 -47 -149h209q37 0 51 -35l551 -1356q10 -28 -6 -51q-15 -24 -45 -24h-1935q-30 0 -45 24q-16 23 -6 51zM199 -166h1769l-504 1245h-755zM938 1339q0 -60 42.5 -102.5 t102.5 -42.5t103 42.5t43 102.5t-43 103t-103 43t-102.5 -43t-42.5 -103z" />
<glyph unicode="&#xf9;" horiz-adv-x="1660" d="M102 356q0 45 33 78l293 293l-293 293q-32 32 -32 79t32 79l244 243q33 33 78 33q47 0 80 -33l294 -295l293 295q33 33 80 33q45 0 78 -33l244 -243q32 -32 32 -79t-32 -79l-293 -293l293 -293q33 -33 33 -78q0 -42 -33 -80l-244 -243q-38 -33 -78 -33q-42 0 -80 33 l-293 295l-294 -295q-38 -33 -80 -33q-40 0 -78 33l-244 243q-33 38 -33 80zM213 356l244 -245l372 372l2 -2v2l373 -372l244 245l-371 371l371 371l-244 245l-373 -372v2l-2 -2l-372 372l-244 -245l371 -371z" />
<glyph unicode="&#xfa;" horiz-adv-x="1914" d="M37 604q0 50 34.5 84.5t84.5 34.5q49 0 83.5 -34.5t34.5 -84.5t-34.5 -84.5t-83.5 -34.5q-50 0 -84.5 34.5t-34.5 84.5zM257 90q0 56 40 94q41 41 96 41t96 -41q40 -38 40 -94t-40 -96q-41 -41 -96 -41t-96 41q-40 40 -40 96zM291 1119.5q0 41.5 31 72.5q32 29 71 29 q40 0 72 -29q29 -31 29 -72.5t-29 -72.5q-32 -29 -72 -29q-39 0 -71 29q-31 31 -31 72.5zM700 1333q0 91 64.5 155t155.5 64q92 0 156.5 -64t64.5 -155q0 -92 -64.5 -156.5t-156.5 -64.5q-91 0 -155.5 64.5t-64.5 156.5zM768 -125q0 64 44.5 109t107.5 45q64 0 108.5 -44.5 t44.5 -109.5q0 -63 -44.5 -107t-108.5 -44q-63 0 -107.5 44t-44.5 107zM1269 1119.5q0 84.5 60 144.5q59 59 144 59q84 0 143 -59q60 -60 60 -144.5t-60 -144.5t-143 -60q-84 0 -144 60t-60 144.5zM1278 78q0 70 49 119t121 49q70 0 119 -49q51 -49 51 -119t-51 -121 q-49 -49 -119 -49q-72 0 -121 49q-49 51 -49 121zM1487 604q0 77 55 132t131 55q77 0 132 -55.5t55 -131.5t-55 -131t-132 -55t-131.5 55t-54.5 131z" />
<glyph unicode="&#xfc;" horiz-adv-x="1556" d="M27 442v555q0 23 16 39.5t39 16.5h536l459 372q26 23 60 9q30 -17 30 -52v-1327q0 -15 -8.5 -29t-21.5 -20q-12 -6 -25 -6q-20 0 -35 12l-459 375h-536q-23 0 -39 16t-16 39zM137 498h502q19 0 35 -13l383 -313v1096l-383 -314q-15 -12 -35 -12h-502v-444zM1231 492 q-6 22 4.5 42t32.5 27q51 17 82.5 60.5t31.5 97.5q0 55 -31.5 99t-82.5 61q-22 7 -32.5 27t-4.5 42q8 22 28.5 32t43.5 3q85 -28 137.5 -100.5t52.5 -163.5q0 -89 -52.5 -161.5t-137.5 -100.5q-12 -4 -19 -4q-18 0 -32.5 10.5t-20.5 28.5z" />
<glyph unicode="&#x2000;" horiz-adv-x="886" />
<glyph unicode="&#x2001;" horiz-adv-x="1772" />
<glyph unicode="&#x2002;" horiz-adv-x="886" />
<glyph unicode="&#x2003;" horiz-adv-x="1772" />
<glyph unicode="&#x2004;" horiz-adv-x="590" />
<glyph unicode="&#x2005;" horiz-adv-x="443" />
<glyph unicode="&#x2006;" horiz-adv-x="295" />
<glyph unicode="&#x2007;" horiz-adv-x="295" />
<glyph unicode="&#x2008;" horiz-adv-x="221" />
<glyph unicode="&#x2009;" horiz-adv-x="354" />
<glyph unicode="&#x200a;" horiz-adv-x="98" />
<glyph unicode="&#x2010;" horiz-adv-x="1495" d="M86 55v799q0 23 16 39t39 16h903v260q0 135 -83 221.5t-213 86.5q-132 0 -215.5 -86.5t-83.5 -221.5v-63q0 -23 -16.5 -39t-39.5 -16q-22 0 -38.5 16t-16.5 39v63q0 182 116 300t294 118q177 0 292 -118t115 -300v-260h199q22 0 38.5 -16t16.5 -39v-799q0 -23 -16.5 -39 t-38.5 -16h-1213q-23 0 -39 16t-16 39zM197 111h1101v688h-1101v-688zM610 565q0 50 42 86.5t96 36.5q52 0 93.5 -36.5t41.5 -86.5q0 -36 -22.5 -66t-57.5 -46v-230q0 -23 -16 -40t-39 -17t-39.5 17t-16.5 40v230q-35 16 -58.5 46.5t-23.5 65.5z" />
<glyph unicode="&#x2011;" horiz-adv-x="1495" d="M86 55v799q0 23 16 39t39 16h903v260q0 135 -83 221.5t-213 86.5q-132 0 -215.5 -86.5t-83.5 -221.5v-63q0 -23 -16.5 -39t-39.5 -16q-22 0 -38.5 16t-16.5 39v63q0 182 116 300t294 118q177 0 292 -118t115 -300v-260h199q22 0 38.5 -16t16.5 -39v-799q0 -23 -16.5 -39 t-38.5 -16h-1213q-23 0 -39 16t-16 39zM197 111h1101v688h-1101v-688zM610 565q0 50 42 86.5t96 36.5q52 0 93.5 -36.5t41.5 -86.5q0 -36 -22.5 -66t-57.5 -46v-230q0 -23 -16 -40t-39 -17t-39.5 17t-16.5 40v230q-35 16 -58.5 46.5t-23.5 65.5z" />
<glyph unicode="&#x2012;" horiz-adv-x="1495" d="M86 55v799q0 23 16 39t39 16h903v260q0 135 -83 221.5t-213 86.5q-132 0 -215.5 -86.5t-83.5 -221.5v-63q0 -23 -16.5 -39t-39.5 -16q-22 0 -38.5 16t-16.5 39v63q0 182 116 300t294 118q177 0 292 -118t115 -300v-260h199q22 0 38.5 -16t16.5 -39v-799q0 -23 -16.5 -39 t-38.5 -16h-1213q-23 0 -39 16t-16 39zM197 111h1101v688h-1101v-688zM610 565q0 50 42 86.5t96 36.5q52 0 93.5 -36.5t41.5 -86.5q0 -36 -22.5 -66t-57.5 -46v-230q0 -23 -16 -40t-39 -17t-39.5 17t-16.5 40v230q-35 16 -58.5 46.5t-23.5 65.5z" />
<glyph unicode="&#x2013;" horiz-adv-x="1196" d="M86 55v799q0 23 12.5 39t30.5 16h698v260q0 135 -64 221.5t-165 86.5q-102 0 -166.5 -86.5t-64.5 -221.5v-63q0 -23 -13 -39t-30 -16t-30 16t-13 39v63q0 182 90 300t227 118t226 -118t89 -300v-260h154q17 0 30 -16t13 -39v-799q0 -23 -13 -39t-30 -16h-938 q-18 0 -30.5 16t-12.5 39zM172 111h852v688h-852v-688zM492 565q0 50 32.5 86.5t73.5 36.5t73 -36.5t32 -86.5q0 -36 -17.5 -66t-44.5 -46v-230q0 -23 -12.5 -40t-30 -17t-30.5 17t-13 40v230q-27 16 -45 46.5t-18 65.5z" />
<glyph unicode="&#x2014;" horiz-adv-x="2220" d="M86 55v799q0 23 25 39t60 16h1398v260q0 135 -128.5 221.5t-329.5 86.5q-205 0 -334 -86.5t-129 -221.5v-63q0 -23 -25.5 -39t-61.5 -16q-34 0 -59.5 16t-25.5 39v63q0 182 179.5 300t455.5 118q274 0 452 -118t178 -300v-260h308q34 0 59.5 -16t25.5 -39v-799 q0 -23 -25.5 -39t-59.5 -16h-1878q-35 0 -60 16t-25 39zM258 111h1704v688h-1704v-688zM897 565q0 50 65 86.5t149 36.5q80 0 144.5 -36.5t64.5 -86.5q0 -36 -35 -66t-89 -46v-230q0 -23 -25 -40t-60.5 -17t-61 17t-25.5 40v230q-54 16 -90.5 46.5t-36.5 65.5z" />
<glyph unicode="&#x202f;" horiz-adv-x="354" />
<glyph unicode="&#x205f;" horiz-adv-x="443" />
<glyph unicode="&#x20ac;" horiz-adv-x="1859" d="M39 442v555q0 23 16 39.5t39 16.5h537l459 372q26 22 59 9q31 -17 31 -52v-1327q0 -35 -31 -49q-12 -6 -25 -6q-19 0 -34 12l-459 375h-537q-23 0 -39 16t-16 39zM150 498h501q19 0 35 -13l383 -313v1096l-383 -314q-15 -12 -35 -12h-501v-444zM1243 492q-6 22 4.5 42 t32.5 27q51 17 83 60.5t32 97.5q0 55 -32 99t-83 61q-23 7 -33 27t-4 42q8 22 28 32t42 3q86 -28 139 -100.5t53 -163.5q0 -89 -53 -161.5t-139 -100.5q-8 -4 -17 -4q-18 0 -32.5 10.5t-20.5 28.5zM1323 225q-6 22 4.5 42.5t32.5 27.5q141 43 227 160t86 264 q0 148 -86 265.5t-227 160.5q-22 7 -32.5 27t-4.5 42q7 22 27.5 32.5t42.5 4.5q177 -55 284 -201t107 -331q0 -183 -107 -329.5t-284 -201.5q-4 -2 -17 -2q-18 0 -32.5 10.5t-20.5 28.5z" />
<glyph unicode="&#x2122;" d="M90 639q0 186 72.5 355t195 291t292.5 194.5t356 72.5t355 -72.5t291 -194.5t194.5 -291t72.5 -355t-72.5 -355.5t-194.5 -292t-291 -195t-355 -72.5t-356 72.5t-292.5 195t-195 292t-72.5 355.5zM201 639q0 -218 108 -403.5t293.5 -293.5t403.5 -108q163 0 311.5 64 t256 171.5t171 256.5t63.5 313q0 217 -107.5 402t-292.5 293t-402 108q-218 0 -403.5 -108t-293.5 -293t-108 -402zM700 289v289v409q0 26 14.5 50t37.5 36q48 28 100 0q32 -18 301 -173.5t303 -176.5q15 -7 29 -25q20 -23 20 -59q0 -31 -14 -51q-13 -22 -35 -35 q-23 -13 -300 -173.5t-306 -176.5q-20 -13 -37 -13q-34 -3 -63 13q-50 29 -50 86zM813 307q171 102 483 281q19 12 48 28.5t38 22.5q-7 4 -41.5 24t-60.5 35q-75 43 -254 146.5t-213 122.5v-271v-389z" />
<glyph unicode="&#x25fc;" horiz-adv-x="1628" d="M0 0v1628h1628v-1628h-1628z" />
</font>
</defs>
</svg>
