<svg xmlns="http://www.w3.org/2000/svg" style="display: none;">

  <symbol id="settings-icon" viewBox="0 0 50 50" stroke-width="4">
    <g transform="translate(2.000000, 2.000000)">
      <path d="M13.6936735,7.46511585 C15.1992968,6.561216 16.8471695,5.87000058 18.5957447,5.43301657 L18.5957447,2.0061411 C18.5957447,0.898179965 19.4888264,0 20.5945321,0 L25.4054679,0 C26.5093677,0 27.4042553,0.898241717 27.4042553,2.0061411 L27.4042553,5.43301657 C29.1528305,5.87000058 30.8007032,6.561216 32.3063265,7.46511585 L34.7306212,5.04082121 C35.514068,4.25737437 36.7806813,4.25376934 37.5625333,5.03562136 L40.9643786,8.4374667 C41.7449537,9.21804174 41.742582,10.4859756 40.9591788,11.2693788 L38.5348841,13.6936735 L38.5348841,13.6936735 C39.438784,15.1992968 40.1299994,16.8471695 40.5669834,18.5957447 L40.5669834,18.5957447 L43.9938589,18.5957447 C45.10182,18.5957447 46,19.4888264 46,20.5945321 L46,25.4054679 C46,26.5093677 45.1017583,27.4042553 43.9938589,27.4042553 L40.5669834,27.4042553 C40.1299994,29.1528305 39.438784,30.8007032 38.5348841,32.3063265 L40.9591788,34.7306212 C41.7426256,35.514068 41.7462307,36.7806813 40.9643786,37.5625333 L37.5625333,40.9643786 C36.7819583,41.7449537 35.5140244,41.742582 34.7306212,40.9591788 L32.3063265,38.5348841 C30.8007032,39.438784 29.1528305,40.1299994 27.4042553,40.5669834 L27.4042553,40.5669834 L27.4042553,43.9938589 C27.4042553,45.10182 26.5111736,46 25.4054679,46 L20.5945321,46 C19.4906323,46 18.5957447,45.1017583 18.5957447,43.9938589 L18.5957447,40.5669834 C16.8471695,40.1299994 15.1992968,39.438784 13.6936735,38.5348841 L11.2693788,40.9591788 C10.485932,41.7426256 9.21931873,41.7462307 8.4374667,40.9643786 L5.03562136,37.5625333 C4.25504632,36.7819583 4.25741804,35.5140244 5.04082121,34.7306212 L7.46511585,32.3063265 C6.561216,30.8007032 5.87000058,29.1528305 5.43301657,27.4042553 L2.0061411,27.4042553 C0.898179965,27.4042553 0,26.5111736 0,25.4054679 L0,20.5945321 C0,19.4906323 0.898241717,18.5957447 2.0061411,18.5957447 L5.43301657,18.5957447 C5.87000058,16.8471695 6.561216,15.1992968 7.46511585,13.6936735 L5.04082121,11.2693788 C4.25737437,10.485932 4.25376934,9.21931873 5.03562136,8.4374667 L8.4374667,5.03562136 C9.21804174,4.25504632 10.4859756,4.25741804 11.2693788,5.04082121 L13.6936735,7.46511585 L13.6936735,7.46511585 L13.6936735,7.46511585 Z M23,31 C27.418278,31 31,27.418278 31,23 C31,18.581722 27.418278,15 23,15 C18.581722,15 15,18.581722 15,23 C15,27.418278 18.581722,31 23,31 L23,31 Z"></path>
    </g>
  </symbol>

  <symbol id="bar-chart-icon" viewBox="0 0 48 46">
    <path d="M46.1,42.2 L3.8,42.2 L3.8,1.9 C3.8,0.8 2.9,0 1.9,0 C0.9,0 0,0.8 0,1.9 L0,44.1 C0,45.2 0.9,46 1.9,46 L46.1,46 C47.2,46 48,45.1 48,44.1 C48,43.1 47.1,42.2 46.1,42.2 L46.1,42.2 L46.1,42.2 Z" fill="#75808F"></path>
    <rect stroke="#75808F" stroke-width="4" x="8.24242424" y="16" width="15.7575758" height="22" rx="2"></rect>
    <rect stroke="#75808F" stroke-width="4" x="29.2424242" y="4" width="15.7575758" height="34" rx="2"></rect>
  </symbol>

  <symbol id="line-chart-icon" fill="#75808F" viewBox="0 0 48 46">
    <path d="M8.8,30.5 L14.6,33.1 C15.4,33.4 16.2,33.6 17,33.6 C18.8,33.6 20.5,32.8 21.6,31.3 L26.6,24.7 C27.1,24 28.1,23.7 28.9,24.1 L33.2,26 C34.7,26.7 36.4,26.7 37.9,26 L45,22.9 C46,22.5 46.4,21.3 46,20.4 C45.6,19.4 44.4,19 43.5,19.4 L36.4,22.5 C35.9,22.7 35.3,22.7 34.8,22.5 L30.5,20.6 C28,19.5 25.2,20.2 23.6,22.4 L18.6,29 C18.1,29.7 17.1,30 16.3,29.6 L10.4,27 C9.4,26.6 8.3,27 7.9,28 C7.4,28.9 7.9,30.1 8.8,30.5 L8.8,30.5 L8.8,30.5 Z"></path>
    <path d="M46.1,42.2 L3.8,42.2 L3.8,1.9 C3.8,0.8 2.9,0 1.9,0 C0.9,0 0,0.8 0,1.9 L0,44.1 C0,45.2 0.9,46 1.9,46 L46.1,46 C47.2,46 48,45.1 48,44.1 C48,43.1 47.1,42.2 46.1,42.2 L46.1,42.2 L46.1,42.2 Z"></path>
  </symbol>

</svg>